<?xml version="1.0" encoding="utf-8"?>
<!-- Generator: Adobe Illustrator 16.0.0, SVG Export Plug-In . SVG Version: 6.00 Build 0)  -->
<!DOCTYPE svg PUBLIC "-//W3C//DTD SVG 1.1 Tiny//EN" "http://www.w3.org/Graphics/SVG/1.1/DTD/svg11-tiny.dtd">
<svg version="1.1" baseProfile="tiny" id="Layer_1" xmlns="http://www.w3.org/2000/svg" xmlns:xlink="http://www.w3.org/1999/xlink"
	 x="0px" y="0px" width="471.74px" height="77.069px" viewBox="0 0 471.74 77.069" xml:space="preserve">
<path fill="#FFFFFF" d="M235.871,76.911c-0.011,0-0.021,0.01-0.03,0.01c-0.091,0.01-0.29,0.029-0.61,0.061
	c-0.16,0.01-0.34,0.029-0.55,0.039c-0.181,0.01-0.39,0.02-0.61,0.029c-0.029,0-0.06,0.01-0.1,0c-0.08,0-0.17,0-0.26,0.01
	c-6.891,0.16-29.521-1.449-58.91-25.959C131.93,15.34,96.55,2.73,27.05,0.42c-2.39-0.09-4.82-0.15-7.3-0.21
	c-1.31-0.02-2.63-0.05-3.96-0.08c-2.52-0.04-5.08-0.08-7.68-0.1C5.46,0.01,2.75,0,0,0h471.74c-2.75,0-5.46,0.01-8.109,0.03
	c-2.601,0.02-5.16,0.06-7.681,0.1c-1.33,0.03-2.649,0.06-3.96,0.08c-2.479,0.06-4.909,0.12-7.3,0.21
	C375.18,2.73,339.8,15.34,296.93,51.1c-30.96,25.82-54.42,26.23-59.87,25.92c-0.21-0.01-0.39-0.029-0.55-0.039
	c-0.21-0.021-0.36-0.031-0.47-0.041c-0.061-0.01-0.11-0.02-0.141-0.02c-0.01,0-0.01,0-0.02-0.01H235.871z"/>
</svg>
