<?xml version="1.0" encoding="utf-8"?>
<!-- Generator: Adobe Illustrator 16.0.0, SVG Export Plug-In . SVG Version: 6.00 Build 0)  -->
<!DOCTYPE svg PUBLIC "-//W3C//DTD SVG 1.1 Tiny//EN" "http://www.w3.org/Graphics/SVG/1.1/DTD/svg11-tiny.dtd">
<svg version="1.1" baseProfile="tiny" id="Email"
	 xmlns="http://www.w3.org/2000/svg" xmlns:xlink="http://www.w3.org/1999/xlink" x="0px" y="0px" width="512px" height="512px"
	 viewBox="0 0 512 512" xml:space="preserve">
<path id="email" fill="#333333" d="M453.766,72.563c-1.778-1.557-4.311-1.919-6.457-0.927L59.658,251.75
	c-2.087,0.975-3.434,3.057-3.458,5.355c-0.024,2.297,1.277,4.41,3.342,5.424l109.704,53.84c2.012,0.992,4.409,0.765,6.206-0.577
	l106.665-79.721l-83.734,86.131c-1.196,1.231-1.802,2.911-1.674,4.62l8.342,108.577c0.18,2.408,1.796,4.462,4.088,5.221
	c0.612,0.197,1.242,0.298,1.867,0.298c1.704,0,3.366-0.735,4.52-2.071l58.226-67.478l71.986,34.398
	c1.559,0.746,3.373,0.774,4.959,0.08c1.586-0.688,2.793-2.035,3.312-3.687L455.529,78.845
	C456.232,76.587,455.545,74.126,453.766,72.563z"/>
</svg>
