<?xml version="1.0" encoding="utf-8"?>
<!-- Generator: Adobe Illustrator 16.0.0, SVG Export Plug-In . SVG Version: 6.00 Build 0)  -->
<!DOCTYPE svg PUBLIC "-//W3C//DTD SVG 1.1//EN" "http://www.w3.org/Graphics/SVG/1.1/DTD/svg11.dtd">
<svg version="1.1" id="Gplus" xmlns="http://www.w3.org/2000/svg" xmlns:xlink="http://www.w3.org/1999/xlink" x="0px" y="0px"
	 width="512px" height="512px" viewBox="0 0 512 512" enable-background="new 0 0 512 512" xml:space="preserve">
<path id="gplus" fill="#333333" d="M266.251,283.278l-18.042-14.016c-5.491-4.551-13.012-10.569-13.012-21.57
	c0-11.056,7.517-18.081,14.034-24.592c21.006-16.54,42.009-34.145,42.009-71.237c0-38.143-23.995-58.209-35.506-67.732h31.015
	l32.559-20.457h-98.626c-27.061,0-66.065,6.397-94.618,29.975c-21.52,18.566-32.018,44.163-32.018,67.213
	c0,39.119,30.036,78.779,83.085,78.779c5.009,0,10.488-0.494,16.004-1.002c-2.479,6.027-4.981,11.049-4.981,19.567
	c0,15.535,7.981,25.063,15.017,34.087c-22.534,1.546-64.609,4.049-95.63,23.112C78,332.979,69.006,358.539,69.006,376.593
	c0,37.141,35.017,71.732,107.616,71.732c86.089,0,131.662-47.632,131.662-94.791C308.292,318.889,288.279,301.837,266.251,283.278z
	 M200.675,225.587c-43.07,0-62.58-55.674-62.58-89.267c0-13.084,2.479-26.587,10.993-37.137
	c8.034-10.042,22.017-16.559,35.072-16.559c41.518,0,63.053,56.175,63.053,92.302c0,9.037-0.999,25.052-12.51,36.636
	C226.654,219.604,213.182,225.587,200.675,225.587z M201.169,427.311c-53.559,0-88.094-25.615-88.094-61.248
	c0-35.609,32.023-47.664,43.038-51.643c21.014-7.072,48.052-8.052,52.563-8.052c5.007,0,7.509,0,11.497,0.497
	c38.069,27.101,54.592,40.6,54.592,66.254C274.772,404.179,249.235,427.311,201.169,427.311z M392.661,224.824v-50.157h-24.769
	v50.157h-50.077v25.044h50.081v50.47h24.765v-50.47h50.333v-25.044H392.661z"/>
</svg>
