<?xml version="1.0" encoding="utf-8"?>
<!-- Generator: Adobe Illustrator 16.0.0, SVG Export Plug-In . SVG Version: 6.00 Build 0)  -->
<!DOCTYPE svg PUBLIC "-//W3C//DTD SVG 1.1 Tiny//EN" "http://www.w3.org/Graphics/SVG/1.1/DTD/svg11-tiny.dtd">
<svg version="1.1" baseProfile="tiny" id="Tick" xmlns="http://www.w3.org/2000/svg" xmlns:xlink="http://www.w3.org/1999/xlink"
	 x="0px" y="0px" width="512px" height="512px" viewBox="0 0 512 512" xml:space="preserve">
<path id="image" fill="#333333" d="M462.797,86.733H47.203c-3.755,0-6.8,3.043-6.8,6.8v324.934c0,3.757,3.045,6.8,6.8,6.8h415.594
	c3.758,0,6.801-3.043,6.801-6.8V93.533C469.598,89.777,466.555,86.733,462.797,86.733z M428.797,371.052l-93.523-96.853
	c-1.033-1.067-2.724-1.137-3.839-0.154l-64.866,57.092l-82.91-102.084c-0.539-0.667-1.326-1.047-2.217-1.028
	c-0.858,0.018-1.659,0.43-2.172,1.118L81.203,360.73V127.534h347.594V371.052z M326.087,225.76c18.412,0,33.36-14.936,33.36-33.363
	c0-18.422-14.948-33.366-33.36-33.366c-18.427,0-33.358,14.944-33.358,33.366C292.729,210.823,307.661,225.76,326.087,225.76z"/>
</svg>
