<?xml version="1.0" encoding="utf-8"?>
<!-- Generator: Adobe Illustrator 16.0.0, SVG Export Plug-In . SVG Version: 6.00 Build 0)  -->
<!DOCTYPE svg PUBLIC "-//W3C//DTD SVG 1.1//EN" "http://www.w3.org/Graphics/SVG/1.1/DTD/svg11.dtd">
<svg version="1.1" id="Instagram" xmlns="http://www.w3.org/2000/svg" xmlns:xlink="http://www.w3.org/1999/xlink" x="0px" y="0px"
	 width="512px" height="512px" viewBox="0 0 512 512" enable-background="new 0 0 512 512" xml:space="preserve">
<path id="instagram" fill="#333333" d="M117.542,71.068h274.92c26.107,0,47.469,19.331,47.469,47.469v274.925
	c0,28.137-21.361,47.47-47.469,47.47h-274.92c-26.117,0-47.473-19.333-47.473-47.47V118.538
	C70.069,90.399,91.425,71.068,117.542,71.068L117.542,71.068z M339.497,112.163c-9.16,0-16.647,7.49-16.647,16.651v39.856
	c0,9.16,7.487,16.653,16.647,16.653H381.3c9.156,0,16.647-7.493,16.647-16.653v-39.856c0-9.162-7.491-16.651-16.647-16.651H339.497
	L339.497,112.163z M398.125,227.48h-32.553c3.078,10.056,4.746,20.707,4.746,31.727c0,61.521-51.475,111.39-114.968,111.39
	c-63.486,0-114.959-49.869-114.959-111.39c0-11.028,1.664-21.675,4.747-31.727h-33.965v156.234c0,8.084,6.616,14.704,14.705,14.704
	h257.555c8.084,0,14.7-6.616,14.7-14.704V227.48H398.125z M255.347,183.222c-41.021,0-74.278,32.222-74.278,71.976
	c0,39.751,33.258,71.975,74.278,71.975c41.023,0,74.289-32.224,74.289-71.975C329.636,215.444,296.378,183.222,255.347,183.222z"/>
</svg>
