<?xml version="1.0" encoding="utf-8"?>
<!-- Generator: Adobe Illustrator 16.0.0, SVG Export Plug-In . SVG Version: 6.00 Build 0)  -->
<!DOCTYPE svg PUBLIC "-//W3C//DTD SVG 1.1//EN" "http://www.w3.org/Graphics/SVG/1.1/DTD/svg11.dtd">
<svg version="1.1" id="LinkedIn_1_" xmlns="http://www.w3.org/2000/svg" xmlns:xlink="http://www.w3.org/1999/xlink" x="0px"
	 y="0px" width="512px" height="512px" viewBox="0 0 512 512" enable-background="new 0 0 512 512" xml:space="preserve">
<path id="linkedin" fill="#333333" d="M61.777,417.441h85.429V160.444H61.777V417.441z M105.061,36.559
	c-29.236,0-48.359,19.177-48.359,44.395c0,24.668,18.57,44.427,47.225,44.427h0.571c29.802,0,48.336-19.755,48.336-44.427
	C152.272,55.735,134.299,36.559,105.061,36.559z M356.921,154.407c-45.383,0-65.658,24.979-77.013,42.465v0.831h-0.562
	c0.163-0.265,0.389-0.559,0.562-0.831v-36.428h-85.452c1.151,24.127,0,256.997,0,256.997h85.461V273.919
	c0-7.69,0.58-15.336,2.834-20.83c6.18-15.367,20.229-31.254,43.835-31.254c30.924,0,43.281,23.572,43.281,58.113v137.493h85.432
	V270.078C455.299,191.138,413.147,154.406,356.921,154.407z"/>
</svg>
