<?xml version="1.0" encoding="utf-8"?>
<!-- Generator: Adobe Illustrator 16.0.0, SVG Export Plug-In . SVG Version: 6.00 Build 0)  -->
<!DOCTYPE svg PUBLIC "-//W3C//DTD SVG 1.1 Tiny//EN" "http://www.w3.org/Graphics/SVG/1.1/DTD/svg11-tiny.dtd">
<svg version="1.1" baseProfile="tiny" id="Layer_1" xmlns="http://www.w3.org/2000/svg" xmlns:xlink="http://www.w3.org/1999/xlink"
	 x="0px" y="0px" width="341.498px" height="103.41px" viewBox="0 0 341.498 103.41" xml:space="preserve">
<path fill="#666666" d="M0,93.602c0,0,39.443-15.125,41.691-18.599S52.114,61.31,58.04,57.631s16.35-3.679,23.502-8.583
	C88.695,44.143,128.138,0,128.138,0s6.335,8.584,13.897,12.263c7.562,3.679,34.129,21.662,42.917,25.954
	c8.788,4.291,15.327,12.467,15.327,12.467l14.102,0.204l18.188-16.146c0,0,13.896,11.648,22.071,19.21
	c8.176,7.562,13.49,13.285,18.803,15.532c5.313,2.248,19.619,9.197,19.619,9.197s-2.247,3.066,11.241,8.379
	c13.488,5.314,37.194,16.35,37.194,16.35s-6.744-0.205-11.854-1.432s-52.729-18.801-54.771-17.574
	c-2.042,1.227,3.884,16.145,3.884,16.145s-15.532-15.328-19.619-17.576c-4.087-2.246-9.195-18.394-15.736-22.276
	c-6.54-3.882-12.262-6.744-13.692-6.131c-1.432,0.613-11.035,12.466-10.831,14.102c0.203,1.636,0,8.788-0.613,9.401
	s-24.934,20.232-24.934,20.232s12.876-16.963,13.897-23.298c1.021-6.336,0.204-8.379-3.475-7.971s-6.744,0.613-6.744,0.613
	s0.614-6.745-3.883-10.628c-4.496-3.882-18.801-12.262-20.845-14.101c-2.045-1.84-5.314-3.27-5.314-3.27l11.648,18.394
	c0,0-9.81-1.432-16.349-6.336c-6.54-4.905-22.072-23.706-23.911-21.867c-1.839,1.839-1.228,8.583-0.205,12.058
	c1.022,3.474,6.131,11.649,6.131,12.467c0,0.816-6.744,11.853-4.699,17.37c2.044,5.518,2.656,13.693,2.656,13.693
	s-6.13-7.358-7.357-7.562c-1.226-0.203,2.043-15.735-0.205-21.254c-2.248-5.518-6.949-9.604-6.949-9.604l-1.43-21.051
	c0,0-5.314-0.204-8.175,7.152c-2.861,7.357-9.606,18.802-10.015,21.459c-0.408,2.657-2.044,15.123-3.065,16.146
	s-13.077,6.539-16.552,8.583s-8.993,4.905-8.993,4.905S91.351,72.96,92.987,72.142c1.636-0.817-0.205-10.014,0-13.692
	s0.41-5.313,0.41-5.313s-10.833,12.261-12.672,12.67c-1.839,0.41-14.306-4.829-19.006-1.393c-4.7,3.438-10.831,15.494-12.262,16.108
	c-1.431,0.613-30.247,12.67-37.399,13.896C4.905,95.645,0,93.602,0,93.602z"/>
</svg>
