<?xml version="1.0" encoding="utf-8"?>
<!-- Generator: Adobe Illustrator 16.0.0, SVG Export Plug-In . SVG Version: 6.00 Build 0)  -->
<!DOCTYPE svg PUBLIC "-//W3C//DTD SVG 1.1 Tiny//EN" "http://www.w3.org/Graphics/SVG/1.1/DTD/svg11-tiny.dtd">
<svg version="1.1" baseProfile="tiny" id="Phone" xmlns="http://www.w3.org/2000/svg" xmlns:xlink="http://www.w3.org/1999/xlink"
	 x="0px" y="0px" width="512px" height="512px" viewBox="0 0 512 512" xml:space="preserve">
<path id="phone" fill="#333333" d="M445.565,406.57c-1.439,6.035-7.501,9.771-13.534,8.322c-6.038-1.441-9.766-7.502-8.322-13.535
	c6.254-26.209,2.971-49.213-8.779-61.543c-7.823-8.207-18.972-11.01-33.117-8.352c-28.116,5.301-46.031,29.587-66.777,57.708
	c-17.371,23.547-37.061,50.231-65.958,68.103c-28.097,17.377-60.167,26.729-91.212,26.729c-2.93,0-5.847-0.081-8.752-0.249
	c-33.766-1.949-61.605-15.411-76.379-36.941c-18.654-27.181-7.949-55.471,6.593-74.78l-11.363-15.188
	c-8.537-11.402-6.3-27.76,4.984-36.455l73.369-56.546c4.625-3.563,10.152-5.45,15.984-5.45c8.222,0,16.069,3.928,20.994,10.506
	l27.061,36.16c21.559-9.716,46.223-26.197,72.971-53.343c27.033-27.432,43.248-52.636,52.77-74.366l-36.12-27.837
	c-11.287-8.697-13.522-25.052-4.985-36.459l55.788-74.552c4.923-6.575,12.771-10.503,20.994-10.503
	c5.833,0,11.357,1.886,15.984,5.451l42.219,32.539c0.055,0.042,0.096,0.097,0.149,0.139c0.323,0.266,0.616,0.561,0.908,0.859
	c0.263,0.263,0.527,0.517,0.76,0.8c0.157,0.193,0.288,0.402,0.431,0.607c0.305,0.429,0.596,0.863,0.832,1.323
	c0.056,0.108,0.099,0.221,0.148,0.329c0.281,0.586,0.516,1.187,0.689,1.806c0.005,0.014,0.012,0.027,0.017,0.04
	c1.066,3.929,24.632,97.685-103.216,227.426c-91.883,93.246-165.727,107.173-201.566,107.173c-0.002,0-0.002,0-0.005,0
	c-13.987-0.003-22.016-2.132-22.886-2.378c-0.025-0.008-0.044-0.02-0.066-0.026c-0.594-0.172-1.158-0.401-1.71-0.67
	c-0.158-0.074-0.322-0.137-0.476-0.222c-0.415-0.225-0.801-0.487-1.186-0.766c-0.244-0.173-0.494-0.334-0.723-0.529
	c-0.263-0.221-0.501-0.471-0.744-0.721c-0.297-0.299-0.586-0.596-0.847-0.922c-0.053-0.066-0.119-0.117-0.168-0.185l-6.839-9.142
	c-7.573,11.82-12.804,27.729-2.216,43.157c21.462,31.269,88.458,39.654,145.996,4.065c25.209-15.589,42.739-39.352,59.696-62.33
	c22.575-30.602,43.902-59.51,80.693-66.446c21.491-4.052,40.509,1.249,53.549,14.931
	C448.224,342.173,453.599,372.923,445.565,406.57z"/>
</svg>
