<?xml version="1.0" encoding="utf-8"?>
<!-- Generator: Adobe Illustrator 16.0.0, SVG Export Plug-In . SVG Version: 6.00 Build 0)  -->
<!DOCTYPE svg PUBLIC "-//W3C//DTD SVG 1.1//EN" "http://www.w3.org/Graphics/SVG/1.1/DTD/svg11.dtd">
<svg version="1.1" id="Post" xmlns="http://www.w3.org/2000/svg" xmlns:xlink="http://www.w3.org/1999/xlink" x="0px" y="0px"
	 width="512px" height="512px" viewBox="0 0 512 512" enable-background="new 0 0 512 512" xml:space="preserve">
<path id="post" fill="#333333" d="M255,318l-53.692-46.996L47.796,402.6c5.58,5.176,13.113,8.4,21.421,8.4h371.566
	c8.277,0,15.779-3.225,21.328-8.4L308.692,271.004L255,318z M462.204,109.401c-5.58-5.208-13.082-8.401-21.421-8.401H69.217
	c-8.277,0-15.779,3.224-21.358,8.463L255,287L462.204,109.401z M38,128.218v257.548l149.823-127.317L38,128.218z M322.177,258.449
	L472,385.767V128.125L322.177,258.449z"/>
</svg>
