<?xml version="1.0" encoding="utf-8"?>
<!-- Generator: Adobe Illustrator 16.0.0, SVG Export Plug-In . SVG Version: 6.00 Build 0)  -->
<!DOCTYPE svg PUBLIC "-//W3C//DTD SVG 1.1//EN" "http://www.w3.org/Graphics/SVG/1.1/DTD/svg11.dtd">
<svg version="1.1" id="Rss" xmlns="http://www.w3.org/2000/svg" xmlns:xlink="http://www.w3.org/1999/xlink" x="0px" y="0px"
	 width="512px" height="512px" viewBox="0 0 512 512" enable-background="new 0 0 512 512" xml:space="preserve">
<path id="rss" fill="#333333" d="M120.925,334.033c-31.39,0-56.925,25.503-56.925,56.924c0,31.312,25.535,56.878,56.925,56.878
	c31.389,0,56.924-25.551,56.924-56.878C177.849,359.536,152.314,334.033,120.925,334.033z M69.918,189.488
	c-3.251,0-5.918,2.667-5.918,5.949v72.249c0,3.251,2.667,5.902,5.918,5.902c92.78,0,168.311,75.5,168.311,168.312
	c0,3.235,2.62,5.918,5.918,5.918h72.296h0.252c3.299,0,5.95-2.683,5.95-5.918l-0.284-1.847
	C321.32,301.743,208.434,189.488,69.918,189.488z M447.669,440.054C446.643,232.572,277.542,64.166,69.918,64.166
	c-3.251,0-5.918,2.667-5.918,5.95v74.348c0,3.267,2.667,5.918,5.918,5.918c160.751,0,291.519,130.783,291.519,291.535
	c0,3.235,2.65,5.919,5.887,5.919h74.379h0.315c3.235,0,5.981-2.684,5.981-5.919L447.669,440.054z"/>
</svg>
