<?xml version="1.0" encoding="utf-8"?>
<!-- Generator: Adobe Illustrator 16.0.0, SVG Export Plug-In . SVG Version: 6.00 Build 0)  -->
<!DOCTYPE svg PUBLIC "-//W3C//DTD SVG 1.1 Tiny//EN" "http://www.w3.org/Graphics/SVG/1.1/DTD/svg11-tiny.dtd">
<svg version="1.1" baseProfile="tiny" id="SEO" xmlns="http://www.w3.org/2000/svg" xmlns:xlink="http://www.w3.org/1999/xlink"
	 x="0px" y="0px" width="512px" height="512px" viewBox="0 0 512 512" xml:space="preserve">
<path id="seo" fill="#333333" d="M131.221,292.203c9.513,0,17.26-7.729,17.26-17.241c0-1.729-0.508-3.292-0.982-4.875
	c22.062-17.788,61.041-49.145,78.809-62.84c2.802,1.983,6.056,3.402,9.75,3.402c3.073,0,5.802-1.019,8.293-2.419
	c11.422,9.712,30.848,26.228,44.633,37.958c-0.182,1-0.58,1.892-0.58,2.946c0,9.531,7.746,17.261,17.277,17.261
	c9.53,0,17.278-7.729,17.278-17.261c0-1.691-0.51-3.237-0.964-4.783l44.633-40.305c2.402,1.255,4.984,2.146,7.896,2.146
	c9.529,0,17.261-7.73,17.261-17.261c0-9.53-7.73-17.26-17.261-17.26c-9.531,0-17.243,7.73-17.243,17.278
	c0,2.273,0.491,4.438,1.291,6.42c-12.479,11.259-31.721,28.646-43.726,39.486c-2.673-1.727-5.69-3-9.146-3
	c-4.074,0-7.64,1.619-10.585,3.965c-11.404-9.694-29.849-25.372-42.96-36.522c0.69-1.854,1.182-3.801,1.182-5.911
	c0-9.531-7.73-17.261-17.26-17.261c-9.531,0-17.261,7.73-17.261,17.261c0,2.11,0.509,4.075,1.201,5.929l-79.228,61.64
	c-2.765-1.892-5.948-3.274-9.548-3.274c-9.532,0-17.261,7.729-17.261,17.26C113.959,284.475,121.689,292.203,131.221,292.203z
	 M208.247,397l-48.708,49H353.17l-48.708-49H208.247z M442.129,66H69.891C55.686,66,44,77.147,44,91.315v267.639
	C44,373.104,55.686,385,69.891,385h372.238C456.315,385,468,373.104,468,358.954V91.315C468,77.147,456.315,66,442.129,66z M436,340
	H76V102h360V340z"/>
</svg>
