<?xml version="1.0" encoding="utf-8"?>
<!-- Generator: Adobe Illustrator 16.0.0, SVG Export Plug-In . SVG Version: 6.00 Build 0)  -->
<!DOCTYPE svg PUBLIC "-//W3C//DTD SVG 1.1//EN" "http://www.w3.org/Graphics/SVG/1.1/DTD/svg11.dtd">
<svg version="1.1" id="Post" xmlns="http://www.w3.org/2000/svg" xmlns:xlink="http://www.w3.org/1999/xlink" x="0px" y="0px"
	 width="512px" height="512px" viewBox="0 0 512 512" enable-background="new 0 0 512 512" xml:space="preserve">
<path id="Subscribe" fill="#333333" d="M256,357l-53.692-46.996L48.796,441.6c5.58,5.177,13.113,8.4,21.421,8.4h371.566
	c8.276,0,15.779-3.225,21.328-8.4l-153.42-131.596L256,357z M422.555,211.005v-20.396l39.618-33.958
	c-5.58-5.208-13.082-8.401-21.421-8.401h-18.197v-2.099L338.404,62H89.445v86.25h-19.26c-8.277,0-15.779,3.224-21.358,8.463
	l40.618,34.813v19.541L39,167.218v257.548l149.823-127.316l-78.378-68.129V83h218.609v72.5h72.5v73.771l-78.378,68.178L473,424.767
	V167.125L422.555,211.005z"/>
</svg>
