<?xml version="1.0" encoding="utf-8"?>
<!-- Generator: Adobe Illustrator 16.0.0, SVG Export Plug-In . SVG Version: 6.00 Build 0)  -->
<!DOCTYPE svg PUBLIC "-//W3C//DTD SVG 1.1 Tiny//EN" "http://www.w3.org/Graphics/SVG/1.1/DTD/svg11-tiny.dtd">
<svg version="1.1" baseProfile="tiny" id="Layer_1" xmlns="http://www.w3.org/2000/svg" xmlns:xlink="http://www.w3.org/1999/xlink"
	 x="0px" y="0px" width="109.412px" height="158.186px" viewBox="0 0 109.412 158.186" xml:space="preserve">
<g>
	<rect x="47.395" y="83.1" fill="#6B3816" width="6.89" height="75.086"/>
	<rect x="54.285" y="83.1" fill="#552B09" width="7.2" height="75.086"/>
	<polygon fill="#418151" points="109.412,129.09 84.929,99.006 95.294,99.006 74.018,75.383 94.146,75.469 76.599,46.305 
		88.677,46.172 54.285,0 54.285,9.219 54.285,46.549 54.285,99.006 54.706,99.006 54.706,129.523 	"/>
	<polygon fill="#5CAE63" points="54.285,62.383 54.285,46.549 54.285,9.219 54.285,0 20.732,46.172 31.974,46.298 14.422,75.469 
		34.551,75.383 14.537,99.006 24.481,99.006 0,129.09 54.706,129.523 54.706,61.865 	"/>
</g>
</svg>
