<?xml version="1.0" encoding="utf-8"?>
<!-- Generator: Adobe Illustrator 16.0.0, SVG Export Plug-In . SVG Version: 6.00 Build 0)  -->
<!DOCTYPE svg PUBLIC "-//W3C//DTD SVG 1.1 Tiny//EN" "http://www.w3.org/Graphics/SVG/1.1/DTD/svg11-tiny.dtd">
<svg version="1.1" baseProfile="tiny" id="Layer_1" xmlns="http://www.w3.org/2000/svg" xmlns:xlink="http://www.w3.org/1999/xlink"
	 x="0px" y="0px" width="87.065px" height="194.469px" viewBox="0 0 87.065 194.469" xml:space="preserve">
<g>
	<rect x="36.066" y="116.018" fill="#6B3816" width="6.89" height="78.451"/>
	<rect x="42.956" y="116.018" fill="#552B09" width="7.201" height="78.451"/>
	<polygon fill="#418151" points="87.065,152.793 71.706,125.771 80.721,125.569 74.334,111.641 86.134,111.641 75.476,92.74 
		81.983,92.74 72.231,72.081 81.086,72.081 43.112,0 43.112,35.353 43.112,75.464 43.112,92.74 43.112,126.411 43.112,165.163 
		85.805,164.743 80.126,152.793 	"/>
	<polygon fill="#5CAE63" points="5.138,72.081 13.994,72.081 4.241,92.74 10.75,92.74 0.091,111.641 11.891,111.641 5.503,125.569 
		15.208,125.786 0,153.213 6.939,153.213 1.261,165.163 43.112,165.163 43.112,126.411 43.112,92.74 43.112,75.464 43.112,35.353 
		43.112,0 	"/>
</g>
</svg>
