<?xml version="1.0" encoding="utf-8"?>
<!-- Generator: Adobe Illustrator 16.0.0, SVG Export Plug-In . SVG Version: 6.00 Build 0)  -->
<!DOCTYPE svg PUBLIC "-//W3C//DTD SVG 1.1 Tiny//EN" "http://www.w3.org/Graphics/SVG/1.1/DTD/svg11-tiny.dtd">
<svg version="1.1" baseProfile="tiny" id="Layer_1" xmlns="http://www.w3.org/2000/svg" xmlns:xlink="http://www.w3.org/1999/xlink"
	 x="0px" y="0px" width="85.883px" height="149.398px" viewBox="0 0 85.883 149.398" xml:space="preserve">
<g>
	
		<rect x="36.762" y="117.354" transform="matrix(0.7128 -0.7013 0.7013 0.7128 -68.6458 71.1276)" fill="#6B3816" width="31.548" height="4.075"/>
	
		<rect x="53.329" y="106.588" transform="matrix(0.7013 0.7128 -0.7128 0.7013 103.7837 -2.9878)" fill="#552B09" width="4.258" height="31.547"/>
	<rect x="32.972" y="74.312" fill="#6B3816" width="6.89" height="75.086"/>
	<rect x="39.862" y="74.312" fill="#552B09" width="7.202" height="75.086"/>
	<polygon fill="#377747" points="39.862,89.787 73.3,89.787 65.634,79.693 78.251,79.693 67.735,66.164 79.724,66.25 39.862,0 	"/>
	<polygon fill="#52A459" points="39.862,89.787 6.423,89.787 14.091,79.693 1.473,79.693 11.988,66.164 0,66.25 39.862,0 	"/>
	<polygon fill="#418151" points="65.208,117.385 85.883,117.131 65.208,77.785 	"/>
	<polygon fill="#5CAE63" points="65.208,117.385 44.536,117.131 65.208,77.785 	"/>
</g>
</svg>
