<?xml version="1.0" encoding="utf-8"?>
<!-- Generator: Adobe Illustrator 16.0.0, SVG Export Plug-In . SVG Version: 6.00 Build 0)  -->
<!DOCTYPE svg PUBLIC "-//W3C//DTD SVG 1.1 Tiny//EN" "http://www.w3.org/Graphics/SVG/1.1/DTD/svg11-tiny.dtd">
<svg version="1.1" baseProfile="tiny" id="Layer_1" xmlns="http://www.w3.org/2000/svg" xmlns:xlink="http://www.w3.org/1999/xlink"
	 x="0px" y="0px" width="84.575px" height="145.557px" viewBox="0 0 84.575 145.557" xml:space="preserve">
<g>
	
		<rect x="35.846" y="120.1" transform="matrix(0.7129 -0.7013 0.7013 0.7129 -70.8347 71.2731)" fill="#6B3816" width="31.548" height="4.076"/>
	
		<rect x="52.413" y="109.336" transform="matrix(0.7015 0.7127 -0.7127 0.7015 105.4485 -1.5232)" fill="#552B09" width="4.259" height="31.547"/>
	<rect x="31.71" y="70.471" fill="#6B3816" width="6.891" height="75.086"/>
	<rect x="38.601" y="70.471" fill="#552B09" width="7.2" height="75.086"/>
	<polygon fill="#377747" points="76.99,91.832 66.475,78.303 76.779,78.389 63.684,63.744 74.505,63.744 63.158,51.852 
		72.855,51.928 38.654,0 38.654,35.754 38.601,35.693 38.601,101.926 72.039,101.926 64.371,91.832 	"/>
	<polygon fill="#52A459" points="38.654,0 4.455,51.928 14.152,51.852 3.226,63.744 13.644,63.744 0,78.389 10.727,78.303 
		0.211,91.832 12.829,91.832 5.161,101.926 38.601,101.926 38.601,72.619 38.654,72.619 	"/>
	<polygon fill="#418151" points="62.511,123.998 80.602,123.998 76.454,118.535 84.575,118.535 77.592,111.217 83.56,111.262 
		62.511,86.291 	"/>
	<polygon fill="#5CAE63" points="62.511,123.998 44.417,123.998 48.566,118.535 40.703,118.535 47.429,111.217 41.46,111.262 
		62.511,86.291 	"/>
</g>
</svg>
