<?xml version="1.0" encoding="utf-8"?>
<!-- Generator: Adobe Illustrator 16.0.0, SVG Export Plug-In . SVG Version: 6.00 Build 0)  -->
<!DOCTYPE svg PUBLIC "-//W3C//DTD SVG 1.1 Tiny//EN" "http://www.w3.org/Graphics/SVG/1.1/DTD/svg11-tiny.dtd">
<svg version="1.1" baseProfile="tiny" id="Layer_1" xmlns="http://www.w3.org/2000/svg" xmlns:xlink="http://www.w3.org/1999/xlink"
	 x="0px" y="0px" width="97.943px" height="168.385px" viewBox="0 0 97.943 168.385" xml:space="preserve">
<g>
	<rect x="42.081" y="93.299" fill="#6B3816" width="6.89" height="75.086"/>
	<rect x="48.971" y="93.299" fill="#552B09" width="7.201" height="75.086"/>
	<polygon fill="#418151" points="48.971,141.141 97.943,141.141 91.318,125.271 95.354,125.271 85.429,106.65 89.674,106.785 
		80.103,90.121 85.377,90.254 75.414,74.574 79.383,74.468 71.978,62.078 76.017,62.071 67.28,48.929 70.866,48.929 64.049,40.265 
		66.5,40.085 60.118,30.218 62.768,30.002 55.686,17.54 58.456,17.688 48.971,0 	"/>
	<polygon fill="#5CAE63" points="48.971,141.141 0,141.141 6.625,125.271 2.589,125.271 12.514,106.65 8.268,106.785 17.84,90.121 
		12.566,90.254 22.529,74.574 18.561,74.468 25.965,62.078 21.926,62.071 30.663,48.929 27.078,48.929 33.894,40.265 31.442,40.085 
		37.825,30.218 35.175,30.002 42.258,17.54 39.486,17.688 48.971,0 	"/>
</g>
</svg>
