<?xml version="1.0" encoding="utf-8"?>
<!-- Generator: Adobe Illustrator 16.0.0, SVG Export Plug-In . SVG Version: 6.00 Build 0)  -->
<!DOCTYPE svg PUBLIC "-//W3C//DTD SVG 1.1 Tiny//EN" "http://www.w3.org/Graphics/SVG/1.1/DTD/svg11-tiny.dtd">
<svg version="1.1" baseProfile="tiny" id="Layer_1" xmlns="http://www.w3.org/2000/svg" xmlns:xlink="http://www.w3.org/1999/xlink"
	 x="0px" y="0px" width="95.109px" height="159.348px" viewBox="0 0 95.109 159.348" xml:space="preserve">
<g>
	
		<rect x="45.221" y="122.324" transform="matrix(0.7128 -0.7013 0.7013 0.7128 -69.7017 78.4874)" fill="#6B3816" width="31.548" height="4.075"/>
	
		<rect x="61.788" y="111.557" transform="matrix(0.7013 0.7128 -0.7128 0.7013 109.8524 -7.5342)" fill="#552B09" width="4.258" height="31.548"/>
	
		<rect x="18.838" y="134.773" transform="matrix(-0.7128 -0.7013 0.7013 -0.7128 -36.6621 258.609)" fill="#6B3816" width="31.548" height="4.074"/>
	
		<rect x="29.561" y="124.006" transform="matrix(-0.7013 0.7128 -0.7128 -0.7013 153.5531 215.2252)" fill="#552B09" width="4.258" height="31.548"/>
	<rect x="40.665" y="84.262" fill="#6B3816" width="6.89" height="75.086"/>
	<rect x="47.555" y="84.262" fill="#552B09" width="7.201" height="75.086"/>
	<polygon fill="#377747" points="47.555,96.79 95.109,96.281 47.555,0 	"/>
	<polygon fill="#52A459" points="47.555,96.79 0,96.281 47.555,0 	"/>
	<polygon fill="#418151" points="73.669,122.352 94.343,122.099 73.669,82.754 	"/>
	<polygon fill="#5CAE63" points="73.669,122.352 52.994,122.099 73.669,82.754 	"/>
	<polygon fill="#418151" points="27.825,132.485 48.498,132.233 27.825,92.888 	"/>
	<polygon fill="#5CAE63" points="27.825,132.485 7.151,132.233 27.825,92.888 	"/>
</g>
</svg>
