<?xml version="1.0" encoding="utf-8"?>
<!-- Generator: Adobe Illustrator 16.0.0, SVG Export Plug-In . SVG Version: 6.00 Build 0)  -->
<!DOCTYPE svg PUBLIC "-//W3C//DTD SVG 1.1 Tiny//EN" "http://www.w3.org/Graphics/SVG/1.1/DTD/svg11-tiny.dtd">
<svg version="1.1" baseProfile="tiny" id="Layer_1" xmlns="http://www.w3.org/2000/svg" xmlns:xlink="http://www.w3.org/1999/xlink"
	 x="0px" y="0px" width="93.824px" height="157.862px" viewBox="0 0 93.824 157.862" xml:space="preserve">
<g>
	
		<rect x="45.226" y="110.853" transform="matrix(0.7129 -0.7013 0.7013 0.7129 -61.6554 75.1961)" fill="#6B3816" width="31.548" height="4.075"/>
	
		<rect x="61.793" y="100.087" transform="matrix(0.7014 0.7128 -0.7128 0.7014 101.6778 -10.9635)" fill="#552B09" width="4.259" height="31.547"/>
	
		<rect x="24.594" y="123.089" transform="matrix(-0.7129 -0.7013 0.7013 -0.7129 -18.6079 242.6351)" fill="#6B3816" width="31.548" height="4.076"/>
	
		<rect x="35.317" y="112.324" transform="matrix(-0.7015 0.7127 -0.7127 -0.7015 155.0084 191.2651)" fill="#552B09" width="4.259" height="31.546"/>
	<rect x="40.96" y="82.775" fill="#6B3816" width="6.891" height="75.087"/>
	<rect x="47.851" y="82.775" fill="#552B09" width="7.201" height="75.087"/>
	<polygon fill="#377747" points="48.327,89.786 81.765,89.786 68.06,66.163 88.187,66.249 48.327,0 	"/>
	<polygon fill="#52A459" points="48.327,89.786 14.888,89.786 28.593,66.163 8.464,66.249 48.327,0 	"/>
	<polygon fill="#418151" points="24.709,127.472 49.419,127.207 24.709,86.142 	"/>
	<polygon fill="#5CAE63" points="24.709,127.472 0,127.207 24.709,86.142 	"/>
	<polygon fill="#418151" points="69.115,116.535 93.824,116.271 69.115,75.204 	"/>
	<polygon fill="#5CAE63" points="69.115,116.535 44.406,116.271 69.115,75.204 	"/>
</g>
</svg>
