<?xml version="1.0" encoding="utf-8"?>
<!-- Generator: Adobe Illustrator 16.0.0, SVG Export Plug-In . SVG Version: 6.00 Build 0)  -->
<!DOCTYPE svg PUBLIC "-//W3C//DTD SVG 1.1 Tiny//EN" "http://www.w3.org/Graphics/SVG/1.1/DTD/svg11-tiny.dtd">
<svg version="1.1" baseProfile="tiny" id="Layer_1" xmlns="http://www.w3.org/2000/svg" xmlns:xlink="http://www.w3.org/1999/xlink"
	 x="0px" y="0px" width="89.422px" height="159.762px" viewBox="0 0 89.422 159.762" xml:space="preserve">
<g>
	
		<rect x="42.613" y="120.325" transform="matrix(0.7128 -0.7013 0.7013 0.7128 -69.0496 76.0855)" fill="#6B3816" width="31.547" height="4.075"/>
	
		<rect x="59.18" y="109.558" transform="matrix(0.7013 0.7128 -0.7128 0.7013 107.6492 -6.2716)" fill="#552B09" width="4.258" height="31.548"/>
	
		<rect x="15.831" y="101.118" transform="matrix(-0.7129 -0.7013 0.7013 -0.7129 -18.2086 198.8562)" fill="#6B3816" width="31.548" height="4.075"/>
	
		<rect x="26.554" y="90.351" transform="matrix(-0.7013 0.7128 -0.7128 -0.7013 124.4481 160.1108)" fill="#552B09" width="4.258" height="31.548"/>
	
		<rect x="17.325" y="135.292" transform="matrix(-0.7128 -0.7013 0.7013 -0.7128 -39.6224 258.4342)" fill="#6B3816" width="31.548" height="4.074"/>
	
		<rect x="28.047" y="124.525" transform="matrix(-0.7013 0.7128 -0.7128 -0.7013 151.3482 217.188)" fill="#552B09" width="4.258" height="31.548"/>
	<rect x="38.348" y="84.676" fill="#6B3816" width="6.89" height="75.086"/>
	<rect x="45.237" y="84.676" fill="#552B09" width="7.201" height="75.086"/>
	<polygon fill="#377747" points="45.714,89.787 79.151,89.787 71.484,79.692 84.104,79.692 73.587,66.164 85.574,66.25 45.714,0 	
		"/>
	<polygon fill="#52A459" points="45.714,89.787 12.274,89.787 19.942,79.692 7.323,79.692 17.839,66.164 5.851,66.25 45.714,0 	"/>
	<polygon fill="#418151" points="23.906,135.18 39.096,135.18 36.516,130.594 41.962,130.594 23.906,109.544 	"/>
	<polygon fill="#5CAE63" points="23.906,135.18 8.718,135.18 11.297,130.594 5.852,130.594 23.906,109.544 	"/>
	<polygon fill="#418151" points="68.997,119.641 86.18,119.641 83.262,114.454 89.422,114.454 68.997,90.641 	"/>
	<polygon fill="#5CAE63" points="68.997,119.641 51.813,119.641 54.731,114.454 48.571,114.454 68.997,90.641 	"/>
	<polygon fill="#418151" points="20.425,101.278 37.607,101.278 34.689,96.09 40.851,96.09 20.425,72.277 	"/>
	<polygon fill="#5CAE63" points="20.425,101.278 3.241,101.278 6.16,96.09 0,96.09 20.425,72.277 	"/>
</g>
</svg>
