<?xml version="1.0" encoding="utf-8"?>
<!-- Generator: Adobe Illustrator 16.0.0, SVG Export Plug-In . SVG Version: 6.00 Build 0)  -->
<!DOCTYPE svg PUBLIC "-//W3C//DTD SVG 1.1//EN" "http://www.w3.org/Graphics/SVG/1.1/DTD/svg11.dtd">
<svg version="1.1" id="Twitter" xmlns="http://www.w3.org/2000/svg" xmlns:xlink="http://www.w3.org/1999/xlink" x="0px" y="0px"
	 width="512px" height="512px" viewBox="0 0 512 512" enable-background="new 0 0 512 512" xml:space="preserve">
<path id="twitter" fill="#333333" d="M483.884,114.268c-0.649-0.772-1.736-1.035-2.659-0.612
	c-13.658,6.059-28.027,10.413-42.823,12.988c15.709-11.818,27.415-28.186,33.419-46.954c0.293-0.898-0.009-1.88-0.744-2.465
	c-0.736-0.585-1.764-0.661-2.572-0.178c-17.692,10.495-36.86,17.893-56.987,21.996c-17.839-18.51-42.741-29.099-68.521-29.099
	c-52.418,0-95.064,42.645-95.064,95.056c0,6.342,0.614,12.62,1.83,18.715c-72.607-4.482-140.497-39.334-186.659-95.958
	c-0.473-0.58-1.188-0.897-1.938-0.827c-0.742,0.055-1.407,0.476-1.782,1.117c-8.421,14.448-12.871,30.979-12.871,47.794
	c0,29.145,13.241,56.396,35.788,74.375c-11.608-1.394-22.944-5.049-33.168-10.724c-0.688-0.389-1.544-0.384-2.232,0.014
	c-0.688,0.393-1.124,1.124-1.142,1.919l-0.009,1.222c0,41.852,27.582,78.606,66.825,90.807c-10.335,1.663-21.06,1.554-31.603-0.457
	c-0.777-0.142-1.59,0.118-2.123,0.722c-0.53,0.594-0.708,1.435-0.463,2.198c11.768,36.727,44.463,62.479,82.52,65.691
	c-31.745,23.257-69.27,35.512-108.919,35.512c-7.304,0-14.658-0.438-21.863-1.284c-1.03-0.114-2.05,0.498-2.406,1.49
	c-0.356,0.996,0.023,2.097,0.912,2.673c42.907,27.516,92.517,42.055,143.473,42.055c166.682,0,266.292-135.395,266.292-266.292
	c0-3.646-0.073-7.276-0.22-10.888c17.984-13.157,33.419-29.252,45.866-47.888C484.597,116.152,484.532,115.044,483.884,114.268z"/>
</svg>
