<?xml version="1.0" encoding="utf-8"?>
<!-- Generator: Adobe Illustrator 16.0.0, SVG Export Plug-In . SVG Version: 6.00 Build 0)  -->
<!DOCTYPE svg PUBLIC "-//W3C//DTD SVG 1.1//EN" "http://www.w3.org/Graphics/SVG/1.1/DTD/svg11.dtd">
<svg version="1.1" id="Video" xmlns="http://www.w3.org/2000/svg" xmlns:xlink="http://www.w3.org/1999/xlink" x="0px" y="0px"
	 width="512px" height="512px" viewBox="0 0 512 512" enable-background="new 0 0 512 512" xml:space="preserve">
<path id="video" fill="#333333" d="M316.511,249.092l-89.422-52.152c-8.148-4.757-14.721-0.954-14.675,8.472l0.458,103.518
	c0.042,9.424,6.694,13.259,14.867,8.539l88.737-51.232C324.64,261.524,324.656,253.85,316.511,249.092z M402.922,170.647
	c-47.156-81.678-151.603-109.665-233.275-62.5c-81.678,47.15-109.667,151.593-62.5,233.268
	c47.15,81.678,151.594,109.67,233.267,62.508C422.092,356.758,450.093,252.321,402.922,170.647z M323.34,374.336
	c-65.333,37.734-148.895,15.344-186.618-50.003C98.991,259,121.389,175.439,186.725,137.724
	c65.336-37.731,148.895-15.342,186.62,50.001C411.07,253.068,388.678,336.612,323.34,374.336z"/>
</svg>
