<?xml version="1.0" encoding="utf-8"?>
<!-- Generator: Adobe Illustrator 16.0.0, SVG Export Plug-In . SVG Version: 6.00 Build 0)  -->
<!DOCTYPE svg PUBLIC "-//W3C//DTD SVG 1.1 Tiny//EN" "http://www.w3.org/Graphics/SVG/1.1/DTD/svg11-tiny.dtd">
<svg version="1.1" baseProfile="tiny" id="Capa_1" xmlns="http://www.w3.org/2000/svg" xmlns:xlink="http://www.w3.org/1999/xlink"
	 x="0px" y="0px" width="45.682px" height="45.682px" viewBox="0 0 45.682 45.682" xml:space="preserve">
<path fill="#333333" d="M20.292,33.297l0.538-2.228c0.062-0.257,0.194-0.477,0.375-0.646c-0.056-0.039-0.109-0.08-0.162-0.123
	l-4.807-3.979l-2.925,0.684c-4.953,1.165-8.442,5.348-8.442,10.146v6.301c0,1.239,1.103,2.229,2.423,2.229h12.381l1.888-10.762
	C20.713,34.908,20.092,34.125,20.292,33.297z M32.42,27.006l-2.885-0.684l-4.802,3.979c-0.053,0.043-0.104,0.084-0.159,0.123
	c0.181,0.169,0.313,0.389,0.377,0.646l0.536,2.228c0.201,0.827-0.42,1.611-1.269,1.623l1.888,10.762h12.381
	c1.32,0,2.324-0.988,2.324-2.229v-6.301C40.814,32.354,37.373,28.171,32.42,27.006z M32.102,19.679
	c1.211-0.259,2.328-1.26,2.51-3.479c0.15-1.817-0.315-2.754-1.004-3.23c1.91-7.785-3.357-9.309-3.357-9.309
	s-3.938-6.68-11.618-1.992c-0.978,0.596-2.496,1.738-3.401,2.917c-1.453,1.546-2.441,4.059-2.597,8.129
	c-0.938,0.358-1.675,1.264-1.492,3.484c0.192,2.32,1.403,3.309,2.677,3.511c1.721,4.188,5.116,7.641,9.136,7.641
	C26.982,27.35,30.385,23.882,32.102,19.679z M22.954,25.397c-4.647,0-8.39-6.31-8.39-11.535c0-0.716,0.023-1.38,0.067-1.995
	c6.797,0.297,10.817-2.429,13.005-4.792c2.075,2.067,3.153,4.68,3.704,6.618c0,0.057,0.001,0.111,0.001,0.168
	C31.343,19.087,27.602,25.397,22.954,25.397z"/>
</svg>
