<?xml version="1.0" encoding="utf-8"?>
<!-- Generator: Adobe Illustrator 16.0.0, SVG Export Plug-In . SVG Version: 6.00 Build 0)  -->
<!DOCTYPE svg PUBLIC "-//W3C//DTD SVG 1.1 Tiny//EN" "http://www.w3.org/Graphics/SVG/1.1/DTD/svg11-tiny.dtd">
<svg version="1.1" baseProfile="tiny" id="Capa_1" xmlns="http://www.w3.org/2000/svg" xmlns:xlink="http://www.w3.org/1999/xlink"
	 x="0px" y="0px" width="46.07px" height="46.068px" viewBox="0 0 46.07 46.068" xml:space="preserve">
<path fill="#333333" d="M26.418,27.922l-2.058,0.597c-0.032,0.009-0.062,0.018-0.096,0.021c-0.332-0.292-0.767-0.486-1.239-0.486
	c-0.477,0-0.907,0.193-1.24,0.486c-0.032-0.005-0.062-0.014-0.095-0.021l-2.05-0.597c-0.614-0.177-1.197,0.285-1.197,0.925v2.331
	c0,0.643,0.584,1.104,1.2,0.925l2.141-0.623c0.333,0.296,0.765,0.479,1.242,0.494c0.479-0.016,0.91-0.198,1.244-0.494l2.146,0.623
	c0.615,0.18,1.208-0.282,1.208-0.925v-2.331C27.625,28.207,27.034,27.745,26.418,27.922z M32.259,26.299l-0.775-0.19l-6.891,11.179
	c-0.357,0.583-0.945,0.935-1.553,0.935c-0.604,0-1.191-0.352-1.553-0.935L14.6,26.107l-0.784,0.19
	c-4.925,1.232-8.398,5.658-8.398,10.736v6.667c0,1.312,1.101,2.366,2.412,2.366h30.42c1.313,0,2.401-1.054,2.401-2.366v-6.667
	C40.652,31.957,37.185,27.531,32.259,26.299z M34.945,40.891c0,0.564-0.438,1.021-1.001,1.021h-4.168
	c-0.565,0-1.034-0.456-1.034-1.021v-0.023c0-0.565,0.468-1,1.034-1h4.168c0.563,0,1.001,0.438,1.001,1V40.891z M13.264,18.528
	c1.812,4.453,5.418,8.125,9.685,8.125h0.141c4.269,0,7.87-3.672,9.687-8.125c1.265-0.291,2.418-1.349,2.607-3.669
	c0.182-2.183-0.479-3.161-1.367-3.595C33.66,1.397,28.573,0,23.09,0h-0.141c-5.483,0-10.571,1.396-10.925,11.265
	c-0.892,0.434-1.549,1.412-1.369,3.595C10.846,17.177,11.999,18.238,13.264,18.528z M23.028,24.594h-0.016
	c-1.459-0.006-2.639-1.125-2.639-2.471c0-1.349,1.185-2.47,2.646-2.47s2.646,1.122,2.646,2.47
	C25.665,23.469,24.487,24.588,23.028,24.594z M23.017,4.259h0.004c8.413-2.108,8.932,5.899,8.886,9.075
	c-0.05,3.403-1.843,6.983-4.196,9.2c0.016-0.136,0.021-0.271,0.021-0.41c0-2.486-2.11-4.537-4.713-4.537
	c-2.604,0-4.713,2.051-4.713,4.537c0,0.14,0.008,0.274,0.021,0.41c-2.353-2.217-4.146-5.797-4.196-9.2
	C14.084,10.158,14.605,2.15,23.017,4.259z"/>
</svg>
