<?xml version="1.0" encoding="utf-8"?>
<!-- Generator: Adobe Illustrator 16.0.0, SVG Export Plug-In . SVG Version: 6.00 Build 0)  -->
<!DOCTYPE svg PUBLIC "-//W3C//DTD SVG 1.1 Tiny//EN" "http://www.w3.org/Graphics/SVG/1.1/DTD/svg11-tiny.dtd">
<svg version="1.1" baseProfile="tiny" id="Capa_1" xmlns="http://www.w3.org/2000/svg" xmlns:xlink="http://www.w3.org/1999/xlink"
	 x="0px" y="0px" width="45.854px" height="45.854px" viewBox="0 0 45.854 45.854" xml:space="preserve">
<path fill="#333333" d="M31.751,26.057l-3.572-0.894c1.507-1.339,2.736-3.182,3.559-5.2c1.152-0.255,2.209-1.214,2.384-3.327
	c0.164-1.99-0.444-2.877-1.261-3.264c-0.01-0.237-0.021-0.47-0.034-0.696c1.049-5.812-3.104-7.843-3.427-7.941
	c-0.541-0.821-4.207-5.82-10.857-1.763c-0.975,0.594-2.52,1.764-3.344,2.942c-0.992,1.246-1.714,3.049-2.01,5.654
	c-0.205,0.022-0.409,0.055-0.61,0.101c-0.055-1.279,0.017-5.048,2.404-7.729c1.767-1.98,4.448-2.985,7.969-2.985
	c3.525,0,6.263,1.013,8.135,3.009c3.075,3.28,2.797,8.175,2.794,8.224c-0.019,0.263,0.182,0.489,0.443,0.506
	c0.012,0.001,0.021,0.001,0.032,0.001c0.248,0,0.457-0.192,0.476-0.444c0.015-0.217,0.312-5.345-3.045-8.934
	C29.727,1.116,26.754,0,22.95,0c-3.809,0-6.73,1.114-8.687,3.312c-2.859,3.213-2.706,7.66-2.625,8.695
	c-1.113,0.595-1.917,1.89-1.688,4.662c0.301,3.653,2.422,4.926,4.428,4.926c0.39,0,0.733-0.084,1.038-0.239
	c1.147,0.743,2.991,1.388,5.943,1.507c0.29,0.437,0.896,0.735,1.601,0.735c0.981,0,1.778-0.586,1.778-1.309
	c0-0.724-0.797-1.31-1.778-1.31c-0.801,0-1.479,0.39-1.701,0.924c-1.938-0.092-3.324-0.421-4.315-0.836
	c-1.353-1.818-1.995-4.906-1.995-6.671c0-0.652,0.021-1.26,0.059-1.824c6.256,0.21,9.975-2.319,12.007-4.517
	c2.617,2.608,3.548,6.138,3.858,7.825c-0.606,4.628-3.906,9.54-7.912,9.54c-1.724,0-3.316-0.909-4.62-2.313
	c-1.332-0.277-2.441-0.713-3.323-1.303c0.72,1.287,1.614,2.438,2.646,3.353l-3.58,0.897c-4.89,1.226-8.28,5.598-8.28,10.637v6.033
	c0,1.711,1.347,3.129,3.058,3.129H36.95c1.711,0,3.102-1.418,3.102-3.129v-6.033C40.053,31.654,36.64,27.279,31.751,26.057z
	 M18.753,43.896h-5.353v-2.533c0-0.264-0.211-0.477-0.475-0.477c-0.263,0-0.475,0.213-0.475,0.477v2.533H8.861
	c-0.659,0-1.158-0.512-1.158-1.172v-6.031c0-4.088,2.701-7.646,6.624-8.729l5.872,4.024c0.06,0.615,0.571,1.119,1.229,1.138
	L18.753,43.896z M20.191,30.836l-4.65-3.185l4.246-1.062c0.583,0.28,1.193,0.488,1.826,0.61L20.191,30.836z M22.149,28.463
	l0.446-1.146c0.121,0.007,0.542,0.009,0.631,0.005l0.445,1.141H22.149z M26.059,26.596l4.213,1.056l-4.649,3.184l-1.416-3.622
	C24.846,27.093,25.465,26.883,26.059,26.596z M38.153,42.725c0,0.66-0.543,1.172-1.202,1.172h-3.605v-2.532
	c0-0.265-0.211-0.478-0.475-0.478c-0.265,0-0.477,0.213-0.477,0.478v2.532h-5.343l-2.674-10.771
	c0.651-0.018,1.162-0.516,1.229-1.123l5.9-4.039c3.922,1.083,6.645,4.642,6.645,8.729v6.031L38.153,42.725L38.153,42.725z"/>
</svg>
