<?xml version="1.0" encoding="utf-8"?>
<!-- Generator: Adobe Illustrator 16.0.0, SVG Export Plug-In . SVG Version: 6.00 Build 0)  -->
<!DOCTYPE svg PUBLIC "-//W3C//DTD SVG 1.1 Tiny//EN" "http://www.w3.org/Graphics/SVG/1.1/DTD/svg11-tiny.dtd">
<svg version="1.1" baseProfile="tiny" id="Capa_1" xmlns="http://www.w3.org/2000/svg" xmlns:xlink="http://www.w3.org/1999/xlink"
	 x="0px" y="0px" width="46.157px" height="46.157px" viewBox="0 0 46.157 46.157" xml:space="preserve">
<path fill="#333333" d="M32.364,26.903l-1.15-0.289l0.004,0.004l-2.559,5.307c-0.139,0.291-0.422,0.482-0.74,0.508
	c-0.32,0.023-0.631-0.125-0.812-0.391l-2.051-2.996c-0.109-0.16-0.285-0.264-0.479-0.279s-0.383,0.057-0.518,0.195l-0.501,0.52
	c-0.121,0.126-0.289,0.197-0.463,0.197c-0.174,0-0.342-0.071-0.463-0.197l-0.502-0.521c-0.134-0.14-0.324-0.211-0.518-0.193
	c-0.193,0.018-0.368,0.119-0.478,0.277l-2.051,2.998c-0.181,0.266-0.49,0.412-0.811,0.389c-0.32-0.023-0.603-0.217-0.742-0.506
	l-2.557-5.307l0.003-0.005l-1.167,0.289c-4.794,1.199-8.172,5.509-8.172,10.449v6.489c0.003,1.279,1.068,2.316,2.346,2.316h30.225
	c1.276,0,2.312-1.037,2.312-2.314v-6.488C40.52,32.411,37.159,28.104,32.364,26.903z M23.095,44.311
	c-0.543,0-0.983-0.439-0.983-0.982s0.44-0.984,0.983-0.984c0.543,0,0.983,0.441,0.983,0.984S23.639,44.311,23.095,44.311z
	 M23.095,39.553c-0.543,0-0.983-0.44-0.983-0.983s0.44-0.983,0.983-0.983c0.543,0,0.983,0.44,0.983,0.983
	S23.639,39.553,23.095,39.553z M23.095,34.793c-0.543,0-0.983-0.439-0.983-0.984c0-0.543,0.44-0.982,0.983-0.982
	c0.543,0,0.983,0.439,0.983,0.982S23.639,34.793,23.095,34.793z M11.008,15.772c0.188,2.287,1.338,3.318,2.586,3.585
	c1.768,4.328,5.273,7.901,9.422,7.901c4.139,0,7.639-3.557,9.408-7.871c1.313-0.208,2.562-1.225,2.759-3.616
	c0.149-1.814-0.297-2.776-0.97-3.281c1.518-7.804-3.881-9.366-3.881-9.366S25.292-2.918,16.4,1.803
	c-1.743,0.926-3.514,2.851-4.685,5.218c-0.167,0.336-0.125,0.739,0.106,1.034c0.232,0.295,0.613,0.432,0.98,0.35
	c-1.006,2.201-0.412,3.711-0.417,3.846C11.495,12.662,10.83,13.613,11.008,15.772z M14.4,12.165
	c6.732-0.031,10.795-2.837,13.065-5.289c2.377,2.37,3.563,5.391,4.145,7.543c-0.455,5.139-4.115,10.826-8.593,10.826
	c-4.787,0-8.641-6.5-8.641-11.882C14.376,12.947,14.384,12.549,14.4,12.165z"/>
</svg>
