<?xml version="1.0" encoding="utf-8"?>
<!-- Generator: Adobe Illustrator 16.0.0, SVG Export Plug-In . SVG Version: 6.00 Build 0)  -->
<!DOCTYPE svg PUBLIC "-//W3C//DTD SVG 1.1 Tiny//EN" "http://www.w3.org/Graphics/SVG/1.1/DTD/svg11-tiny.dtd">
<svg version="1.1" baseProfile="tiny" id="Capa_1" xmlns="http://www.w3.org/2000/svg" xmlns:xlink="http://www.w3.org/1999/xlink"
	 x="0px" y="0px" width="45.648px" height="45.648px" viewBox="0 0 45.648 45.648" xml:space="preserve">
<path fill="#333333" d="M34.074,26.062V8.415C34.074,3.76,30.267,0,25.617,0H20.02c-4.651,0-8.38,3.76-8.38,8.415v17.583
	c-3.939,1.82-6.521,5.783-6.521,10.254v6.215c0,1.767,1.408,3.184,3.172,3.184h28.998c1.766,0,3.241-1.402,3.241-3.166v-6.219
	C40.53,31.838,37.947,27.908,34.074,26.062z M14.183,34.976c0,0-0.185,0.062-0.451,0.166c-1.183,0.451-1.962,1.589-1.962,2.854
	v5.694H8.291c-0.04,0.002-0.068,0.004-0.107,0c-0.599-0.085-1.042-0.587-1.042-1.208v-6.219c0-4.285,2.867-8.008,7.043-9.057
	L14.183,34.976L14.183,34.976z M28.532,35.111c-0.979,0.313-1.901,0.894-2.579,1.662c-0.812,0.92-1.746,1.442-3.214,1.44h-0.001
	c-1.146,0-2.233-0.496-2.979-1.367c-0.688-0.808-1.598-1.41-2.641-1.735l-0.001-8.658l2.434-0.611
	c0.742,0.355,1.521,0.603,2.338,0.707c0.308,0.039,0.615,0.062,0.933,0.062s0.628-0.022,0.935-0.062
	c0.807-0.104,1.582-0.343,2.313-0.688l2.463,0.615V35.111z M22.82,24.644c-4.572,0-8.255-6.22-8.255-11.366
	c-0.003-0.674,0.018-1.302,0.06-1.885c6.502,0.245,10.361-2.375,12.467-4.65c2.549,2.539,3.547,5.922,3.916,7.755
	C30.493,19.357,27.036,24.644,22.82,24.644z M38.444,42.465c0,0.682-0.527,1.229-1.208,1.229H33.88v-5.694
	c0-1.266-0.783-2.4-1.963-2.854c-0.271-0.104-0.452-0.166-0.452-0.166v-7.771c4.108,1.058,6.979,4.771,6.979,9.043V42.465z"/>
</svg>
