<?xml version="1.0" encoding="utf-8"?>
<!-- Generator: Adobe Illustrator 16.0.0, SVG Export Plug-In . SVG Version: 6.00 Build 0)  -->
<!DOCTYPE svg PUBLIC "-//W3C//DTD SVG 1.1 Tiny//EN" "http://www.w3.org/Graphics/SVG/1.1/DTD/svg11-tiny.dtd">
<svg version="1.1" baseProfile="tiny" id="Capa_1" xmlns="http://www.w3.org/2000/svg" xmlns:xlink="http://www.w3.org/1999/xlink"
	 x="0px" y="0px" width="45.811px" height="45.811px" viewBox="0 0 45.811 45.811" xml:space="preserve">
<path fill="#333333" d="M41.869,39.81h-0.945v-3.646c0-5.294-3.575-9.889-8.712-11.175l-3.799-0.952
	c1.567-1.394,2.837-3.311,3.684-5.426c1.258-0.227,2.437-1.225,2.625-3.52c0.184-2.216-0.547-3.13-1.479-3.495
	c-0.027-0.708-0.097-1.368-0.153-1.988c-0.556-6.068-5.005-10.456-9.632-9.471c-0.733,0.155-1.476,0.126-2.216,0.005
	c-2.972-0.488-6.072,1.793-7.583,4.173c-1.956,3.079-1.729,5.898-1.214,7.349c-0.857,0.406-1.497,1.337-1.324,3.428
	c0.184,2.22,1.292,3.228,2.502,3.495c0.865,2.124,2.158,4.062,3.744,5.468l-3.743,0.935c-5.136,1.286-8.734,5.881-8.734,11.175
	l0.007,3.646H3.973c-0.805,0-1.433,0.505-1.433,1.31v3.232c0,0.804,0.622,1.458,1.426,1.458h37.902c0.805,0,1.4-0.654,1.4-1.458
	v-3.133C43.271,40.414,42.673,39.81,41.869,39.81z M30.974,26.743l-2.479,1.983c-0.263,0.209-0.599,0.302-0.931,0.257
	s-0.631-0.226-0.828-0.498l-1.778-2.467c0.42-0.124,0.831-0.282,1.229-0.476L30.974,26.743z M19.599,25.563
	c0.417,0.201,0.847,0.363,1.287,0.487l-1.755,2.435c-0.195,0.271-0.494,0.452-0.827,0.498s-0.67-0.047-0.932-0.257l-2.48-1.985
	L19.599,25.563z M17.917,43.745h-5.71v-6.387c0-0.277-0.239-0.501-0.516-0.501s-0.517,0.224-0.517,0.501l-0.014,2.482l-4.298-0.03
	l-0.006-3.646c0-3.821,2.293-7.203,5.694-8.704l4.249,3.391c0.511,0.406,1.165,0.587,1.812,0.499
	c0.646-0.088,1.229-0.438,1.611-0.966l0.348-0.48l-0.208,0.877c-0.195,0.808,0.39,1.562,1.204,1.619L17.917,43.745z M14.425,12.744
	c0-0.14,0.001-0.278,0.004-0.414c0.523-2.055,1.99-3.738,3.952-4.541c0.395-0.161,0.777-0.343,1.143-0.534
	c0.127-0.065,0.284-0.037,0.379,0.071s0.104,0.267,0.021,0.385c-0.384,0.548-0.797,1.075-1.237,1.553
	C18.512,9.45,18.478,9.727,18.6,9.951c0.123,0.224,0.375,0.344,0.625,0.299c2.149-0.384,5.681-1.343,8.315-3.688
	c0.629-0.561,1.587-0.521,2.169,0.089c0.071,0.074,0.144,0.149,0.212,0.227c0.582,0.638,0.958,1.423,1.092,2.275
	c0.16,1.021,0.245,2.209,0.245,3.592c0,5.245-3.755,11.581-8.417,11.581C18.181,24.324,14.425,17.989,14.425,12.744z M34.637,39.836
	v-2.479c0-0.277-0.238-0.501-0.517-0.501s-0.516,0.224-0.516,0.501v6.387h-5.664L24.25,32.4c0.834-0.034,1.438-0.812,1.241-1.631
	l-0.214-0.884l0.352,0.487c0.384,0.53,0.964,0.88,1.612,0.97c0.647,0.09,1.303-0.093,1.813-0.5l4.231-3.382
	c3.398,1.501,5.667,4.882,5.667,8.702v3.647h0.001L34.637,39.836z"/>
</svg>
