<?xml version="1.0" encoding="utf-8"?>
<!-- Generator: Adobe Illustrator 16.0.0, SVG Export Plug-In . SVG Version: 6.00 Build 0)  -->
<!DOCTYPE svg PUBLIC "-//W3C//DTD SVG 1.1 Tiny//EN" "http://www.w3.org/Graphics/SVG/1.1/DTD/svg11-tiny.dtd">
<svg version="1.1" baseProfile="tiny" id="Capa_1" xmlns="http://www.w3.org/2000/svg" xmlns:xlink="http://www.w3.org/1999/xlink"
	 x="0px" y="0px" width="45.73px" height="45.73px" viewBox="0 0 45.73 45.73" xml:space="preserve">
<path fill="#333333" d="M15.902,25.58l-3.175,0.747c-0.2,0.047-0.398,0.1-0.595,0.155l6.147,6.476
	c0.121,0.126,0.32,0.135,0.451,0.021l3.094-2.729c-0.317-0.107-0.619-0.273-0.889-0.498L15.902,25.58z M20.155,33.936l0.264-1.095
	l-1.62,1.429c-0.096,0.084-0.216,0.127-0.335,0.127c-0.134,0-0.268-0.054-0.366-0.158l-6.918-7.284
	c-0.035-0.036-0.078-0.077-0.101-0.12c-4.26,1.662-7.138,5.592-7.138,10.031v6.543c0,1.289,1.143,2.322,2.513,2.322h4.513v-3.798
	c0-0.28,0.239-0.508,0.521-0.508c0.28,0,0.519,0.228,0.519,0.508v3.798h7.4l2.064-10.104C20.591,35.612,19.949,34.794,20.155,33.936
	z M27.446,32.956l6.148-6.474C33.399,26.427,33.2,26.375,33,26.327l-3.175-0.747l-5.034,4.169c-0.271,0.225-0.571,0.39-0.89,0.498
	l3.094,2.729C27.127,33.092,27.325,33.083,27.446,32.956z M34.65,26.834c-0.021,0.043-0.066,0.083-0.103,0.12l-6.916,7.284
	c-0.101,0.104-0.233,0.158-0.368,0.158c-0.119,0-0.239-0.042-0.337-0.127l-1.618-1.429l0.264,1.095
	c0.207,0.857-0.438,1.678-1.314,1.691l2.064,10.103h7.4v-3.798c0-0.28,0.239-0.508,0.521-0.508s0.52,0.228,0.52,0.508v3.798h4.512
	c1.372,0,2.516-1.033,2.516-2.322v-6.543C41.788,32.426,38.91,28.495,34.65,26.834z M32.33,18.717
	c1.26-0.27,2.418-1.309,2.608-3.614c0.179-2.177-0.493-3.137-1.389-3.551c-0.022-0.617-0.094-1.199-0.125-1.755
	C33.023,2.292,28.747-0.594,23.525,0.1c-0.763,0.102-1.517,0.128-2.276,0.006c-3.053-0.494-6.01,1.979-7.79,4.228
	c-2.124,2.683-1.342,6.942-1.349,7.149c-0.976,0.373-1.74,1.312-1.549,3.619c0.198,2.412,1.457,3.438,2.779,3.646
	c1.787,4.352,5.314,7.938,9.488,7.938C27.014,26.685,30.549,23.083,32.33,18.717z M22.829,24.655c-4.723,0-8.544-6.273-8.708-11.628
	c0.163-0.835,0.419-1.567,0.703-2.188c0.604-1.319,1.714-2.342,3.081-2.833c0.329-0.118,0.697,0.002,0.891,0.294
	c0.194,0.292,0.164,0.679-0.072,0.937c-0.026,0.028-0.053,0.057-0.078,0.083c-0.18,0.191-0.215,0.478-0.09,0.708
	s0.385,0.354,0.643,0.311C21.11,10,24.07,9.226,26.582,7.491c0.577-0.398,1.293-0.545,1.98-0.404s1.291,0.555,1.666,1.146
	c0.037,0.06,0.073,0.119,0.11,0.182c0.782,1.281,1.201,2.758,1.201,4.261C31.543,18.102,27.655,24.655,22.829,24.655z"/>
</svg>
