<?xml version="1.0" encoding="utf-8"?>
<!-- Generator: Adobe Illustrator 16.0.0, SVG Export Plug-In . SVG Version: 6.00 Build 0)  -->
<!DOCTYPE svg PUBLIC "-//W3C//DTD SVG 1.1 Tiny//EN" "http://www.w3.org/Graphics/SVG/1.1/DTD/svg11-tiny.dtd">
<svg version="1.1" baseProfile="tiny" id="Capa_1" xmlns="http://www.w3.org/2000/svg" xmlns:xlink="http://www.w3.org/1999/xlink"
	 x="0px" y="0px" width="45.625px" height="45.625px" viewBox="0 0 45.625 45.625" xml:space="preserve">
<path fill="#333333" d="M32.098,24.868l-3.785-0.946c1.565-1.391,2.832-3.305,3.676-5.416c1.254-0.227,2.43-1.223,2.619-3.511
	c0.182-2.211-0.545-3.123-1.479-3.488c-0.024-0.707-0.114-1.363-0.151-1.983c-0.422-6.985-3.934-10.057-9.609-9.449
	c-0.744,0.08-1.472,0.126-2.211,0.006c-2.964-0.487-6.058,1.789-7.565,4.162c-1.951,3.072-1.206,7.197-1.211,7.332
	c-0.855,0.405-1.492,1.334-1.32,3.42c0.183,2.214,1.289,3.219,2.497,3.486c0.862,2.118,2.152,4.051,3.733,5.455l-3.754,0.936
	c-5.124,1.283-8.714,5.865-8.714,11.146v6.319c0,1.794,1.484,3.288,3.278,3.288h29.44c1.794,0,3.265-1.494,3.265-3.287v-6.32
	C40.805,30.734,37.221,26.15,32.098,24.868z M11.048,43.625H8.099c-0.691,0-1.279-0.596-1.279-1.287v-6.32
	c0-3.24,1.656-6.162,4.228-7.886V43.625z M14.358,12.65c0-0.294,0.044-0.583,0.13-0.865c0.232-0.752,0.53-1.394,0.825-1.916
	c0.511-0.903,1.339-1.585,2.323-1.913c0.03-0.01,0.06-0.02,0.089-0.03c0.346-0.119,0.727,0.013,0.926,0.319
	c0.199,0.306,0.164,0.709-0.085,0.976c-0.047,0.05-0.094,0.1-0.142,0.148c-0.15,0.155-0.184,0.389-0.084,0.58
	c0.1,0.191,0.312,0.296,0.524,0.261c2.074-0.342,5.708-1.252,8.441-3.609c0.725-0.624,1.812-0.562,2.461,0.141
	c0.615,0.668,1.014,1.497,1.149,2.395c0.153,1.003,0.233,2.166,0.233,3.513c0,5.233-3.744,11.554-8.396,11.554
	C18.103,24.204,14.358,17.884,14.358,12.65z M23.555,43.625h-1.446l-6.883-17.1l4.299-1.082c1.012,0.486,2.096,0.759,3.229,0.759
	c1.174,0,2.29-0.279,3.325-0.776l4.372,1.108L23.555,43.625z M37.539,43.625h-2.887v-15.45c2.535,1.729,4.152,4.628,4.152,7.843
	v6.32h0.002C38.807,43.029,38.23,43.625,37.539,43.625z M24.044,27.761c-0.333-0.292-0.765-0.485-1.24-0.485
	c-0.475,0-0.907,0.192-1.24,0.485c-0.032-0.005-0.064-0.013-0.095-0.021l-2.05-0.598c-0.614-0.177-1.197,0.287-1.197,0.926V30.4
	c0,0.641,0.584,1.102,1.2,0.924l2.141-0.624c0.333,0.296,0.765,0.479,1.242,0.493c0.478-0.014,0.911-0.197,1.245-0.493l2.146,0.624
	c0.615,0.178,1.209-0.283,1.209-0.924v-2.332c-0.002-0.641-0.592-1.102-1.207-0.924l-2.057,0.596
	C24.107,27.748,24.077,27.756,24.044,27.761z M22.8,32.943c-0.63,0-1.142,0.511-1.142,1.142s0.511,1.142,1.142,1.142
	c0.631,0,1.142-0.511,1.142-1.142S23.431,32.943,22.8,32.943z M22.8,37.018c-0.63,0-1.142,0.511-1.142,1.142
	c0,0.63,0.511,1.142,1.142,1.142c0.631,0,1.142-0.512,1.142-1.142C23.941,37.528,23.431,37.018,22.8,37.018z"/>
</svg>
