<?xml version="1.0" encoding="utf-8"?>
<!-- Generator: Adobe Illustrator 16.0.0, SVG Export Plug-In . SVG Version: 6.00 Build 0)  -->
<!DOCTYPE svg PUBLIC "-//W3C//DTD SVG 1.1 Tiny//EN" "http://www.w3.org/Graphics/SVG/1.1/DTD/svg11-tiny.dtd">
<svg version="1.1" baseProfile="tiny" id="Capa_1" xmlns="http://www.w3.org/2000/svg" xmlns:xlink="http://www.w3.org/1999/xlink"
	 x="0px" y="0px" width="45.958px" height="45.958px" viewBox="0 0 45.958 45.958" xml:space="preserve">
<path fill="#333333" d="M21.215,25.088h3.507c0.452,0,0.819-0.325,0.819-0.778c0-0.868-0.703-1.529-1.571-1.529h-2.005
	c-0.868,0-1.572,0.663-1.572,1.529C20.394,24.763,20.762,25.088,21.215,25.088z M24.32,36.482c0.665,0,1.205-0.54,1.205-1.205
	s-0.54-1.204-1.205-1.204s-1.205,0.539-1.205,1.204S23.655,36.482,24.32,36.482z M19.538,36.482c0.666,0,1.205-0.54,1.205-1.205
	s-0.54-1.204-1.205-1.204s-1.205,0.539-1.205,1.204S18.873,36.482,19.538,36.482z M24.32,38.854c-0.666,0-1.206,0.54-1.206,1.206
	s0.54,1.206,1.206,1.206s1.206-0.54,1.206-1.206S24.986,38.854,24.32,38.854z M30.678,28.84l-2.818-0.707
	c0.932-1.073,1.703-2.387,2.262-3.752c1.019-0.209,1.971-1.042,2.125-2.904c0.135-1.646-0.354-2.426-0.981-2.789v-4.566
	c1.678-0.975,3.284-2.98,3.284-5.258c0-3.465-3.055-6.256-6.562-5.859C26.971,1.198,25.07,0,22.972,0
	c-2.099,0-3.997,1.198-5.012,3.005c-3.508-0.397-6.561,2.394-6.561,5.859c0,2.278,1.616,4.284,3.294,5.258v4.566
	c-0.63,0.363-1.127,1.142-0.99,2.789c0.153,1.863,1.096,2.695,2.114,2.904c0.56,1.369,1.333,2.686,2.268,3.76l-2.793,0.699
	c-4.242,1.062-7.206,4.859-7.206,9.232v5.252c0,1.473,1.205,2.633,2.677,2.633h24.465c1.474,0,2.644-1.16,2.644-2.633v-5.252
	C37.872,33.7,34.92,29.902,30.678,28.84z M10.762,44.385c-0.593,0-1.104-0.467-1.104-1.061v-5.252c0-3.363,2.098-6.316,5.243-7.443
	l0.001,13.756H10.762z M15.818,12.909c-1.374-0.625-2.817-2.254-2.817-4.045c0-2.676,2.505-4.8,5.242-4.198l0.645,0.142l0.26-0.606
	c0.662-1.543,2.151-2.607,3.822-2.607c1.67,0,3.159,1.063,3.821,2.607l0.26,0.606l0.645-0.142c2.738-0.602,5.248,1.522,5.248,4.198
	c0,1.791-1.438,3.421-2.812,4.045l-0.438,0.213v4.206H16.267v-4.206L15.818,12.909z M16.412,19.528
	c0.001-0.179,0.004-0.352,0.007-0.523h13.1c0.004,0.171,0.006,0.344,0.006,0.523c0,4.191-2.864,9.609-6.556,9.609
	S16.412,23.719,16.412,19.528z M36.299,43.325h-0.002c0,0.594-0.478,1.061-1.07,1.061h-18.75V30.191l2.983-0.748
	c1.053,0.804,2.238,1.293,3.51,1.293c1.276,0,2.468-0.493,3.522-1.303l3.809,0.954c3.533,0.884,5.998,4.045,5.998,7.686V43.325z
	 M19.538,38.854c-0.666,0-1.206,0.54-1.206,1.206s0.54,1.206,1.206,1.206s1.206-0.54,1.206-1.206S20.204,38.854,19.538,38.854z"/>
</svg>
