<?xml version="1.0" encoding="utf-8"?>
<!-- Generator: Adobe Illustrator 16.0.0, SVG Export Plug-In . SVG Version: 6.00 Build 0)  -->
<!DOCTYPE svg PUBLIC "-//W3C//DTD SVG 1.1 Tiny//EN" "http://www.w3.org/Graphics/SVG/1.1/DTD/svg11-tiny.dtd">
<svg version="1.1" baseProfile="tiny" id="Capa_1" xmlns="http://www.w3.org/2000/svg" xmlns:xlink="http://www.w3.org/1999/xlink"
	 x="0px" y="0px" width="45.828px" height="45.828px" viewBox="0 0 45.828 45.828" xml:space="preserve">
<path fill="#333333" d="M31.615,26.273l-2.008-0.502l-2.771,4c-0.881,1.271-2.332,2.03-3.879,2.03c-1.549,0-2.999-0.759-3.881-2.03
	l-2.785-4.02l-2.077,0.521C9.396,27.479,6.02,31.789,6.02,36.753v5.918c0,1.703,1.407,3.157,3.11,3.157h27.565
	c1.703,0,3.113-1.454,3.113-3.157v-5.918C39.809,31.787,36.434,27.479,31.615,26.273z M12.448,43.775H9.129
	c-0.624,0-1.194-0.48-1.194-1.104v-5.918c0-3.229,1.777-6.122,4.514-7.668L12.448,43.775z M37.893,42.671
	c0,0.624-0.574,1.104-1.197,1.104H33.38v-14.69c2.736,1.546,4.515,4.438,4.515,7.668L37.893,42.671z M14.199,20.462
	c1.588,4.021,4.805,7.293,8.71,7.293c3.893,0,7.103-3.254,8.694-7.259c1.155-0.229,2.225-1.165,2.397-3.278
	c0.166-2.035-0.494-2.895-1.345-3.248c-0.268-7.208-3.247-9.261-6.803-9.813v-2.32C25.854,0.802,25.016,0,23.98,0h-2.138
	c-1.034,0-1.872,0.803-1.872,1.837v2.335c-3.694,0.61-6.59,2.83-6.838,9.864c-0.779,0.391-1.343,1.264-1.185,3.182
	C12.116,19.235,13.106,20.18,14.199,20.462z M19.973,6.154c0,0.898,0.728,1.644,1.626,1.644h2.627c0.898,0,1.629-0.746,1.629-1.645
	c2.871,0.551,4.865,2.463,4.865,8.879c0,4.881-3.477,10.772-7.809,10.772s-7.839-5.89-7.839-10.771
	C15.073,8.63,17.1,6.71,19.973,6.154z"/>
</svg>
