<?xml version="1.0" encoding="utf-8"?>
<!-- Generator: Adobe Illustrator 16.0.0, SVG Export Plug-In . SVG Version: 6.00 Build 0)  -->
<!DOCTYPE svg PUBLIC "-//W3C//DTD SVG 1.1 Tiny//EN" "http://www.w3.org/Graphics/SVG/1.1/DTD/svg11-tiny.dtd">
<svg version="1.1" baseProfile="tiny" id="Capa_1" xmlns="http://www.w3.org/2000/svg" xmlns:xlink="http://www.w3.org/1999/xlink"
	 x="0px" y="0px" width="45.877px" height="45.878px" viewBox="0 0 45.877 45.878" xml:space="preserve">
<path fill="#333333" d="M17.306,27.859v4.52c0,1.48,1.199,2.682,2.679,2.682h5.909c1.479,0,2.681-1.199,2.681-2.682v-4.521
	c-1.654,1.228-3.564,1.966-5.635,1.966C20.868,29.822,18.96,29.085,17.306,27.859z M6.231,37.416v6.222
	c0,1.226,0.993,2.241,2.217,2.241h4.339v-9.557c0-0.697,0.565-1.264,1.264-1.264l0.001-7.664
	C9.455,28.546,6.231,32.675,6.231,37.416z M34.604,17.203c0.174-2.131-0.508-3.036-1.398-3.41c-0.014-0.349,0.135-1.787,0.135-2.184
	c0-4.843-4.514-9.472-8.688-10.482c0.025-0.065,0.039-0.133,0.039-0.204c0-0.51-0.739-0.923-1.656-0.923
	c-0.916,0-1.658,0.414-1.658,0.923c0,0.081,0.019,0.159,0.053,0.233c-3.917,1.068-8.698,5.655-8.698,10.452
	c0,0.293,0.018,0.584,0.044,0.87c-0.04,0.437-0.068,0.895-0.086,1.374c-0.824,0.408-1.433,1.326-1.267,3.351
	c0.177,2.127,1.22,3.121,2.373,3.412c1.67,4.226,5.049,7.666,9.153,7.666c4.092,0,7.467-3.423,9.139-7.633
	C33.299,20.403,34.42,19.418,34.604,17.203z M22.949,26.225c-4.555,0-8.223-6.199-8.223-11.331c0-0.335,0.007-0.657,0.018-0.969
	l1.33,1.307c0.583,0.573,1.499,0.619,2.139,0.11c0.995-0.792,2.782-1.327,4.822-1.327s3.827,0.535,4.821,1.327
	c0.639,0.508,1.557,0.462,2.139-0.109l1.166-1.144c0.006,0.261,0.01,0.529,0.01,0.805C31.17,20.026,27.502,26.225,22.949,26.225z
	 M31.825,27.395l0.008,7.664c0.693,0,1.258,0.562,1.258,1.258v9.562h4.34c1.225,0,2.217-1.017,2.217-2.24v-6.223
	C39.646,32.675,36.422,28.546,31.825,27.395z"/>
</svg>
