<?xml version="1.0" encoding="utf-8"?>
<!-- Generator: Adobe Illustrator 16.0.0, SVG Export Plug-In . SVG Version: 6.00 Build 0)  -->
<!DOCTYPE svg PUBLIC "-//W3C//DTD SVG 1.1 Tiny//EN" "http://www.w3.org/Graphics/SVG/1.1/DTD/svg11-tiny.dtd">
<svg version="1.1" baseProfile="tiny" id="Capa_1" xmlns="http://www.w3.org/2000/svg" xmlns:xlink="http://www.w3.org/1999/xlink"
	 x="0px" y="0px" width="46.096px" height="46.098px" viewBox="0 0 46.096 46.098" xml:space="preserve">
<path fill="#333333" d="M15.327,36.384c-0.518-0.562-1.403-0.562-1.919,0l-1.341,1.449c-0.324,0.354-0.074,0.918,0.406,0.918h3.788
	c0.48,0,0.731-0.563,0.406-0.918L15.327,36.384z M32.248,25.556l-3.684-0.926c1.562-1.386,2.84-3.296,3.693-5.39
	c1.193-0.265,2.291-1.259,2.471-3.449c0.17-2.062-0.459-2.981-1.304-3.384c-0.01-0.245,1.343-7.178-3.588-8.954
	c-0.562-0.852-4.36-6.035-11.255-1.828c-1.011,0.616-2.614,1.831-3.47,3.054c-1.241,1.561-2.072,3.967-2.212,7.662
	c-0.922,0.361-1.641,1.263-1.461,3.45c0.188,2.265,1.351,3.25,2.591,3.474c0.835,2.09,2.087,3.982,3.638,5.358l-3.744,0.932
	c-5.076,1.267-8.631,5.794-8.631,11.009v6.242c0,1.771,1.477,3.29,3.253,3.29h29.16c1.775,0,3.097-1.519,3.097-3.29v-6.242
	C40.803,31.35,37.323,26.822,32.248,25.556z M14.856,13.474c0-0.679,0.021-1.309,0.062-1.895c6.484,0.218,10.34-2.403,12.448-4.681
	c2.713,2.705,3.679,6.364,4,8.113c-0.63,4.798-4.052,9.891-8.202,9.891C18.561,24.902,14.856,18.65,14.856,13.474z M38.879,42.808
	c0,0.683-0.486,1.277-1.173,1.277h-2.852v-2.656c0-0.272-0.252-0.494-0.523-0.494c-0.273,0-0.525,0.221-0.525,0.494v2.656h-6.689
	l-2.787-11.198c0.834-0.022,1.44-0.803,1.246-1.617l-0.535-2.203c-0.144-0.59-0.672-0.986-1.28-0.986h-1.266
	c-0.608,0-1.139,0.4-1.28,0.99l-0.535,2.206c-0.197,0.814,0.412,1.587,1.246,1.608l-2.787,11.2H12.29v-2.656
	c0-0.272-0.208-0.494-0.48-0.494s-0.48,0.221-0.48,0.494v2.656H8.547c-0.687,0-1.242-0.596-1.242-1.277v-6.242
	c0-4.31,2.922-8.048,7.114-9.095l5.441-1.36c1.024,0.493,2.134,0.77,3.297,0.77c1.132,0,2.217-0.274,3.226-0.765l5.41,1.355
	c4.19,1.047,7.086,4.785,7.086,9.095V42.808z M22.593,16.009h0.988c0.166,1.486,1.422,2.621,2.941,2.621
	c1.633,0,2.959-1.32,2.959-2.953c0-1.888-1.711-1.881-2.959-1.881c-1.084,0-2.514-0.061-2.875,1.25h-1.124
	c-0.36-1.312-1.791-1.25-2.874-1.25c-1.25,0-2.961-0.01-2.961,1.877c0,1.634,1.329,2.962,2.961,2.962
	C21.172,18.635,22.427,17.496,22.593,16.009z M26.524,14.765c1.642,0,1.974,0.15,1.974,0.898c0,1.087-0.886,1.972-1.974,1.972
	c-1.086,0-1.972-0.885-1.972-1.972C24.551,14.916,24.882,14.765,26.524,14.765z M17.68,15.664c0-0.748,0.331-0.898,1.972-0.898
	s1.973,0.15,1.973,0.898c0,1.087-0.886,1.972-1.973,1.972S17.68,16.75,17.68,15.664z"/>
</svg>
