<?xml version="1.0" encoding="utf-8"?>
<!-- Generator: Adobe Illustrator 16.0.0, SVG Export Plug-In . SVG Version: 6.00 Build 0)  -->
<!DOCTYPE svg PUBLIC "-//W3C//DTD SVG 1.1 Tiny//EN" "http://www.w3.org/Graphics/SVG/1.1/DTD/svg11-tiny.dtd">
<svg version="1.1" baseProfile="tiny" id="Capa_1" xmlns="http://www.w3.org/2000/svg" xmlns:xlink="http://www.w3.org/1999/xlink"
	 x="0px" y="0px" width="45.984px" height="45.984px" viewBox="0 0 45.984 45.984" xml:space="preserve">
<path fill="#333333" d="M32.089,27.073l-1.199-0.298l-7.94,18.063l-7.938-18.058l-1.154,0.293
	c-4.714,1.181-8.004,5.414-8.004,10.274v6.38c0,1.255,0.984,2.257,2.241,2.257h29.717c1.257,0,2.322-1.002,2.322-2.258v-6.38
	C40.132,32.487,36.803,28.253,32.089,27.073z M28.633,39.545l2.235-2.417c0.526-0.573,1.433-0.579,1.959-0.007l2.235,2.424H28.633z
	 M13.659,19.651c1.736,4.257,5.184,7.771,9.264,7.771c4.068,0,7.509-3.496,9.251-7.738c1.291-0.204,2.519-1.204,2.711-3.555
	c0.186-2.247-0.56-3.179-1.509-3.542c-0.138-3.599-0.918-5.977-2.092-7.601h0.002c-0.821-1.287-2.598-2.659-3.688-3.326
	C20.419-2.721,16.529,2.88,16.081,3.577c-0.66,0.235-4.77,2.044-3.58,8.438c-0.014,0.212-0.023,0.429-0.032,0.65
	c-0.873,0.403-1.527,1.341-1.353,3.462C11.302,18.376,12.432,19.389,13.659,19.651z M18.636,7.053
	c2.153,2.327,6.092,5.005,12.723,4.777c0.04,0.598,0.062,1.24,0.062,1.931c-0.001,5.291-3.79,11.681-8.495,11.681
	c-4.23,0-7.719-5.164-8.382-10.05C14.859,13.632,15.835,9.845,18.636,7.053z M23.028,41.534L25.68,34.8l-1.229-1.23
	c0.775-0.099,1.319-0.856,1.131-1.645l-0.545-2.269c-0.146-0.604-0.686-1.035-1.306-1.035h-1.458c-0.621,0-1.16,0.432-1.306,1.035
	l-0.544,2.266c-0.189,0.787,0.354,1.547,1.131,1.646l-1.229,1.231L23.028,41.534z M22.637,15.717c0-0.134-0.009-0.258-0.025-0.37
	h0.781c-0.016,0.112-0.023,0.236-0.023,0.37c0,2.107,2.091,2.104,3.097,2.104c1.005,0,3.097-0.003,3.097-2.109
	c0-2.107-2.092-2.111-3.097-2.111c-0.71,0-1.959,0.011-2.634,0.739h-1.659c-0.674-0.729-1.924-0.739-2.633-0.739
	c-1.006,0-3.098,0.002-3.098,2.109c0,2.106,2.092,2.106,3.098,2.106C20.544,17.818,22.637,17.825,22.637,15.717z M26.465,14.593
	c1.792,0,2.105,0.361,2.105,1.118s-0.314,1.118-2.105,1.118c-1.792,0-2.106-0.36-2.106-1.118
	C24.358,14.953,24.673,14.593,26.465,14.593z M17.432,15.712c0-0.757,0.315-1.118,2.107-1.118s2.106,0.361,2.106,1.118
	s-0.315,1.118-2.106,1.118C17.748,16.829,17.432,16.469,17.432,15.712z"/>
</svg>
