<?xml version="1.0" encoding="utf-8"?>
<!-- Generator: Adobe Illustrator 16.0.0, SVG Export Plug-In . SVG Version: 6.00 Build 0)  -->
<!DOCTYPE svg PUBLIC "-//W3C//DTD SVG 1.1 Tiny//EN" "http://www.w3.org/Graphics/SVG/1.1/DTD/svg11-tiny.dtd">
<svg version="1.1" baseProfile="tiny" id="Capa_1" xmlns="http://www.w3.org/2000/svg" xmlns:xlink="http://www.w3.org/1999/xlink"
	 x="0px" y="0px" width="45.988px" height="45.988px" viewBox="0 0 45.988 45.988" xml:space="preserve">
<path fill="#333333" d="M25.019,16.432h-4.101c-1.1,0-1.992,0.877-1.992,1.978c0,0.573,0.466,1.024,1.039,1.024h6.006
	c0.572,0,1.038-0.451,1.038-1.024C27.01,17.309,26.118,16.432,25.019,16.432z M10.64,14.816c0.193,2.361,1.388,3.417,2.678,3.683
	c1.812,4.428,5.396,8.08,9.641,8.08c4.243,0,7.827-3.648,9.64-8.075c1.3-0.258,2.505-1.312,2.7-3.687
	c0.164-1.984-0.367-2.976-1.136-3.462c3.039-4.147-1.374-6.473-1.604-6.589C30.586,0.476,26.685,0,22.959,0
	c-3.923,0-7.643,0.719-9.56,4.766c-0.002-0.001-0.005-0.003-0.008-0.006c0,0-4.736,2.338-1.616,6.596
	C11.007,11.841,10.476,12.832,10.64,14.816z M14.922,6.285c1.433-3.855,4.515-4.266,8.036-4.266c3.646,0,6.672,0.399,8.062,4.254
	c-1.815,2.979-0.16,7.798,0.42,9.271c-1.125,4.614-4.488,9.013-8.482,9.013c-3.984,0-7.342-4.38-8.475-8.981
	C15.051,14.143,16.742,9.287,14.922,6.285z M32.487,26.236l-1.164-0.293L22.97,44.289l-8.333-18.346l-1.148,0.293
	c-4.917,1.229-8.352,5.648-8.352,10.721v6.656c0,1.312,1.03,2.375,2.342,2.375h31.007c1.311,0,2.363-1.063,2.363-2.375v-6.656
	C40.851,31.885,37.405,27.467,32.487,26.236z M29.567,38.984c0.105-1.311,1.23-2.437,2.619-2.437c1.387,0,2.512,1.126,2.618,2.437
	H29.567z M19.433,15.863c1.484,0,2.722-1.046,2.963-2.509h1.146c0.241,1.462,1.479,2.51,2.963,2.51c1.658,0,3.007-1.347,3.007-3.004
	s-1.349-3.004-3.007-3.004c-1.484,0-2.722,1.112-2.963,2.498h-1.146c-0.241-1.386-1.479-2.498-2.963-2.498
	c-1.658,0-3.007,1.35-3.007,3.008S17.775,15.863,19.433,15.863z M26.505,10.869c1.101,0,1.996,0.896,1.996,1.996
	s-0.896,1.996-1.996,1.996c-1.102,0-1.996-0.896-1.996-1.996S25.405,10.869,26.505,10.869z M19.433,10.869
	c1.1,0,1.996,0.896,1.996,1.996s-0.896,1.996-1.996,1.996c-1.102,0-1.996-0.896-1.996-1.996S18.332,10.869,19.433,10.869z
	 M26.353,28.201l-2.059,0.598c-0.031,0.009-0.062,0.017-0.095,0.021c-0.333-0.293-0.765-0.488-1.24-0.488
	c-0.475,0-0.906,0.195-1.239,0.488c-0.032-0.006-0.064-0.014-0.096-0.021l-2.05-0.598c-0.614-0.176-1.197,0.287-1.197,0.926v2.332
	c0,0.642,0.584,1.103,1.2,0.924l2.142-0.624c0.332,0.297,0.765,0.479,1.241,0.494c0.479-0.015,0.911-0.197,1.244-0.494l2.146,0.624
	c0.614,0.179,1.209-0.282,1.209-0.924v-2.331C27.56,28.488,26.967,28.027,26.353,28.201z"/>
</svg>
