<?xml version="1.0" encoding="utf-8"?>
<!-- Generator: Adobe Illustrator 16.0.0, SVG Export Plug-In . SVG Version: 6.00 Build 0)  -->
<!DOCTYPE svg PUBLIC "-//W3C//DTD SVG 1.1//EN" "http://www.w3.org/Graphics/SVG/1.1/DTD/svg11.dtd">
<svg version="1.1" id="YouTube" xmlns="http://www.w3.org/2000/svg" xmlns:xlink="http://www.w3.org/1999/xlink" x="0px" y="0px"
	 width="512px" height="512px" viewBox="0 0 512 512" enable-background="new 0 0 512 512" xml:space="preserve">
<path id="youtube" fill="#333333" d="M474.912,148.317c-5.575-24.227-25.396-42.102-49.248-44.768
	c-56.485-6.306-113.669-6.34-170.584-6.306c-56.919-0.034-114.112,0-170.604,6.306c-23.836,2.666-43.639,20.541-49.22,44.768
	c-7.938,34.502-8.032,72.159-8.032,107.683c0,35.526,0,73.183,7.938,107.681c5.568,24.22,25.375,42.103,49.232,44.766
	c56.485,6.31,113.669,6.347,170.593,6.31c56.926,0.037,114.109,0,170.577-6.31c23.843-2.663,43.663-20.541,49.247-44.766
	c7.936-34.498,7.964-72.154,7.964-107.681C482.774,220.476,482.848,182.819,474.912,148.317z M196.218,326.708
	c0-50.392,0-100.26,0-150.656c48.281,25.191,96.246,50.212,144.828,75.56C292.606,276.734,244.626,301.606,196.218,326.708z"/>
</svg>
