<svg baseProfile="tiny" xmlns="http://www.w3.org/2000/svg" width="471.74" height="77.069" viewBox="0 0 471.74 77.069"><path fill="#FFF" d="M235.87 76.91c-.01 0-.02.01-.03.01l-.61.062c-.16.01-.34.03-.55.04-.18.01-.39.02-.61.028-.028 0-.06.01-.1 0-.08 0-.17 0-.26.01-6.89.16-29.52-1.45-58.91-25.96C131.93 15.34 96.55 2.73 27.05.42c-2.39-.09-4.82-.15-7.3-.21-1.31-.02-2.63-.05-3.96-.08-2.52-.04-5.08-.08-7.68-.1C5.46.01 2.75 0 0 0h471.74c-2.75 0-5.46.01-8.11.03-2.6.02-5.16.06-7.68.1-1.33.03-2.65.06-3.96.08-2.48.06-4.91.12-7.3.21C375.18 2.73 339.8 15.34 296.93 51.1c-30.96 25.82-54.42 26.23-59.87 25.92-.21-.01-.39-.03-.55-.04-.21-.02-.36-.03-.47-.04-.06-.01-.11-.02-.14-.02-.01 0-.01 0-.02-.01h-.01z"/></svg>