<svg baseProfile="tiny" xmlns="http://www.w3.org/2000/svg" width="341.498" height="103.41" viewBox="0 0 341.498 103.41"><path fill="#666" d="M0 93.602s39.443-15.125 41.69-18.6 10.424-13.692 16.35-17.37 16.35-3.68 23.502-8.584C88.695 44.143 128.138 0 128.138 0s6.335 8.584 13.897 12.263c7.562 3.68 34.13 21.662 42.917 25.954 8.788 4.29 15.327 12.467 15.327 12.467l14.1.204 18.19-16.146s13.895 11.648 22.07 19.21c8.176 7.562 13.49 13.285 18.803 15.532 5.313 2.248 19.62 9.197 19.62 9.197s-2.248 3.067 11.24 8.38c13.488 5.314 37.194 16.35 37.194 16.35s-6.744-.205-11.854-1.432-52.73-18.8-54.77-17.574c-2.043 1.227 3.883 16.145 3.883 16.145s-15.532-15.33-19.62-17.577c-4.086-2.246-9.194-18.394-15.735-22.276-6.54-3.882-12.26-6.744-13.69-6.13-1.433.612-11.036 12.465-10.832 14.1.203 1.637 0 8.79-.613 9.402S193.33 98.3 193.33 98.3s12.877-16.962 13.898-23.297c1.02-6.336.204-8.38-3.475-7.97s-6.744.612-6.744.612.613-6.745-3.884-10.628c-4.496-3.882-18.8-12.262-20.845-14.1-2.044-1.84-5.313-3.27-5.313-3.27l11.648 18.393s-9.81-1.432-16.35-6.336c-6.54-4.905-22.07-23.706-23.91-21.867-1.84 1.84-1.228 8.583-.205 12.058 1.022 3.474 6.13 11.65 6.13 12.467 0 .816-6.743 11.853-4.698 17.37 2.044 5.518 2.656 13.693 2.656 13.693s-6.13-7.358-7.357-7.562c-1.225-.203 2.044-15.735-.204-21.254-2.248-5.52-6.95-9.605-6.95-9.605l-1.43-21.05s-5.313-.205-8.174 7.15c-2.86 7.358-9.606 18.803-10.015 21.46-.408 2.657-2.044 15.123-3.065 16.146s-13.077 6.54-16.552 8.584-8.993 4.905-8.993 4.905S91.35 72.96 92.987 72.14c1.636-.817-.205-10.014 0-13.692s.41-5.313.41-5.313-10.833 12.26-12.672 12.67c-1.84.41-14.306-4.83-19.006-1.393-4.7 3.438-10.832 15.494-12.263 16.108-1.43.613-30.247 12.67-37.4 13.896C4.906 95.645 0 93.602 0 93.602z"/></svg>