<svg baseProfile="tiny" xmlns="http://www.w3.org/2000/svg" width="95.109" height="159.348" viewBox="0 0 95.109 159.348"><path fill="#6B3816" d="M48.318 133.966l22.487-22.124 2.858 2.905-22.488 22.124z"/><path fill="#552B09" d="M73.666 114.743l2.987 3.035-22.488 22.125-2.986-3.035z"/><path fill="#6B3816" d="M44.426 149.332L21.94 127.207l2.856-2.904 22.488 22.125z"/><path fill="#552B09" d="M44.43 149.33l-2.986 3.036-22.487-22.125 2.986-3.034z"/><path fill="#6B3816" d="M40.665 84.262h6.89v75.086h-6.89z"/><path fill="#552B09" d="M47.555 84.262h7.2v75.086h-7.2z"/><path fill="#377747" d="M47.555 96.79l47.554-.51L47.554 0z"/><path fill="#52A459" d="M47.555 96.79L0 96.28 47.555 0z"/><path fill="#418151" d="M73.67 122.352l20.673-.253L73.67 82.753z"/><path fill="#5CAE63" d="M73.67 122.352l-20.676-.253L73.67 82.753z"/><path fill="#418151" d="M27.825 132.485l20.673-.252-20.673-39.345z"/><path fill="#5CAE63" d="M27.825 132.485l-20.674-.252 20.675-39.345z"/></svg>