<svg baseProfile="tiny" xmlns="http://www.w3.org/2000/svg" width="93.824" height="157.862" viewBox="0 0 93.824 157.862"><path fill="#6B3816" d="M48.327 122.506l22.49-22.124 2.86 2.905-22.492 22.124z"/><path fill="#552B09" d="M73.677 103.284l2.988 3.035-22.487 22.126-2.987-3.035z"/><path fill="#6B3816" d="M50.18 137.637l-22.49-22.124 2.86-2.906 22.49 22.124z"/><path fill="#552B09" d="M50.18 137.64l-2.987 3.036-22.483-22.13 2.987-3.035z"/><path fill="#6B3816" d="M40.96 82.775h6.89v75.087h-6.89z"/><path fill="#552B09" d="M47.85 82.775h7.202v75.087h-7.2z"/><path fill="#377747" d="M48.327 89.786h33.438L68.06 66.163l20.127.086L48.327 0z"/><path fill="#52A459" d="M48.327 89.786h-33.44l13.706-23.623-20.13.086L48.328 0z"/><path fill="#418151" d="M24.71 127.472l24.71-.265-24.71-41.065z"/><path fill="#5CAE63" d="M24.71 127.472L0 127.207l24.71-41.065z"/><path fill="#418151" d="M69.115 116.535l24.71-.264-24.71-41.066z"/><path fill="#5CAE63" d="M69.115 116.535l-24.71-.264 24.71-41.066z"/></svg>