<svg baseProfile="tiny" xmlns="http://www.w3.org/2000/svg" width="89.422" height="159.762" viewBox="0 0 89.422 159.762"><path fill="#6B3816" d="M45.71 131.97l22.486-22.125 2.857 2.904-22.486 22.123z"/><path fill="#552B09" d="M71.06 112.745l2.985 3.035-22.487 22.125-2.986-3.035z"/><path fill="#6B3816" d="M41.42 115.667L18.93 93.542l2.857-2.905 22.49 22.125z"/><path fill="#552B09" d="M41.424 115.675l-2.987 3.035L15.95 96.586l2.986-3.035z"/><path fill="#6B3816" d="M42.91 149.848l-22.49-22.125 2.858-2.904 22.488 22.124z"/><path fill="#552B09" d="M42.917 149.85l-2.986 3.036-22.486-22.125 2.986-3.034z"/><path fill="#6B3816" d="M38.348 84.676h6.89v75.086h-6.89z"/><path fill="#552B09" d="M45.237 84.676h7.2v75.086h-7.2z"/><path fill="#377747" d="M45.714 89.787H79.15l-7.666-10.095h12.62L73.587 66.164l11.987.086L45.714 0z"/><path fill="#52A459" d="M45.714 89.787h-33.44l7.668-10.095H7.322L17.84 66.164l-11.99.086L45.715 0z"/><path fill="#418151" d="M23.906 135.18h15.19l-2.58-4.586h5.446l-18.056-21.05z"/><path fill="#5CAE63" d="M23.906 135.18H8.718l2.58-4.586H5.85l18.054-21.05z"/><path fill="#418151" d="M68.997 119.64H86.18l-2.918-5.186h6.16L68.997 90.64z"/><path fill="#5CAE63" d="M68.997 119.64H51.813l2.918-5.186h-6.16L68.998 90.64z"/><path fill="#418151" d="M20.425 101.278h17.182L34.69 96.09h6.16L20.426 72.277z"/><path fill="#5CAE63" d="M20.425 101.278H3.24l2.92-5.188H0l20.425-23.813z"/></svg>