<svg baseProfile="tiny" xmlns="http://www.w3.org/2000/svg" width="97.943" height="168.385" viewBox="0 0 97.943 168.385"><path fill="#6B3816" d="M42.08 93.3h6.89v75.085h-6.89z"/><path fill="#552B09" d="M48.97 93.3h7.202v75.085h-7.2z"/><path fill="#418151" d="M48.97 141.14h48.973l-6.625-15.87h4.036l-9.925-18.62 4.244.135-9.57-16.664 5.273.134-9.963-15.68 3.97-.106-7.406-12.39 4.04-.007-8.738-13.14h3.586l-6.817-8.665 2.45-.18-6.382-9.867 2.65-.216-7.082-12.462 2.77.148L48.97 0z"/><path fill="#5CAE63" d="M48.97 141.14H0l6.625-15.87H2.59l9.924-18.62-4.246.135L17.84 90.12l-5.274.134 9.963-15.68-3.97-.106 7.405-12.39-4.04-.007 8.738-13.14h-3.585l6.816-8.665-2.452-.18 6.383-9.867-2.65-.216 7.083-12.462-2.772.148L48.97 0z"/></svg>