<svg baseProfile="tiny" xmlns="http://www.w3.org/2000/svg" width="85.883" height="149.398" viewBox="0 0 85.883 149.398"><path fill="#6B3816" d="M39.86 128.996l22.486-22.124 2.858 2.904L42.716 131.9z"/><path fill="#552B09" d="M65.207 109.775l2.987 3.035-22.487 22.124-2.986-3.035z"/><path fill="#6B3816" d="M32.972 74.312h6.89v75.086h-6.89z"/><path fill="#552B09" d="M39.862 74.312h7.202v75.086h-7.202z"/><path fill="#377747" d="M39.862 89.787H73.3l-7.666-10.094H78.25l-10.515-13.53 11.99.087L39.86 0z"/><path fill="#52A459" d="M39.862 89.787H6.422l7.67-10.094H1.47l10.516-13.53L0 66.25 39.862 0z"/><path fill="#418151" d="M65.208 117.385l20.675-.254-20.675-39.345z"/><path fill="#5CAE63" d="M65.208 117.385l-20.672-.254 20.672-39.345z"/></svg>