<svg baseProfile="tiny" xmlns="http://www.w3.org/2000/svg" width="84.575" height="145.557" viewBox="0 0 84.575 145.557"><path fill="#6B3816" d="M38.946 131.754l22.49-22.125 2.86 2.905-22.49 22.124z"/><path fill="#552B09" d="M64.292 112.53l2.988 3.036-22.483 22.13-2.988-3.035z"/><path fill="#6B3816" d="M31.71 70.47h6.89v75.087h-6.89z"/><path fill="#552B09" d="M38.6 70.47h7.2v75.087h-7.2z"/><path fill="#377747" d="M76.99 91.832l-10.515-13.53 10.304.087-13.096-14.646h10.82L63.16 51.852l9.697.076L38.655 0v35.754l-.054-.06v66.232h33.44l-7.67-10.094z"/><path fill="#52A459" d="M38.654 0l-34.2 51.928 9.698-.076L3.226 63.744h10.418L0 78.39l10.727-.087L.21 91.833h12.62l-7.67 10.093H38.6V72.62h.054z"/><path fill="#418151" d="M62.51 123.998h18.092l-4.148-5.463h8.12l-6.982-7.318 5.968.045-21.05-24.97z"/><path fill="#5CAE63" d="M62.51 123.998H44.418l4.15-5.463h-7.864l6.726-7.318-5.97.045 21.05-24.97z"/></svg>